<?xml version="1.0" encoding="UTF-8"?>
<svg version="1.1" xmlns="http://www.w3.org/2000/svg" width="128" height="128">
<path d="M0 0 C1.47398003 -0.0099852 1.47398003 -0.0099852 2.97773743 -0.02017212 C5.05113871 -0.03026276 7.12457223 -0.03499025 9.19799805 -0.03466797 C12.33633339 -0.03902509 15.47324257 -0.07533941 18.61132812 -0.11328125 C35.14881797 -0.20739116 48.1515912 1.85139881 60.9296875 13.3671875 C70.79900066 23.70468439 74.97896176 35.8446594 75.01171875 49.84375 C75.02170395 51.34746658 75.02170395 51.34746658 75.03189087 52.88156128 C75.04198378 54.99784522 75.04670893 57.11416077 75.04638672 59.23046875 C75.05073949 62.4302372 75.08703956 65.62860196 75.125 68.828125 C75.2248796 86.7047417 72.89525758 99.54903854 60.36328125 113.0859375 C49.92221558 122.98976713 37.30716475 126.46031168 23.234375 126.5390625 C22.0281826 126.54761261 22.0281826 126.54761261 20.79762268 126.55633545 C19.0990631 126.56574809 17.40048556 126.5723045 15.7019043 126.57617188 C13.14533179 126.58581659 10.58958535 126.61684981 8.03320312 126.6484375 C-9.52189469 126.7623158 -22.92792255 123.99696526 -36.03125 111.7265625 C-43.85101754 103.57375545 -49.35844848 93.06774446 -49.5012207 81.64428711 C-49.51405594 80.74242172 -49.52689117 79.84055634 -49.54011536 78.91136169 C-49.55119576 77.46443687 -49.55119576 77.46443687 -49.5625 75.98828125 C-49.57057175 74.98060196 -49.57864349 73.97292267 -49.58695984 72.93470764 C-49.60077103 70.8022736 -49.6115064 68.66981773 -49.61938477 66.53735352 C-49.63087455 64.37387537 -49.65127836 62.21042489 -49.6809082 60.04711914 C-49.99830046 36.85266045 -49.99830046 36.85266045 -45.32421875 27.3359375 C-44.79441406 26.24796875 -44.26460937 25.16 -43.71875 24.0390625 C-36.11414935 12.24723729 -26.06564405 4.56110046 -12.41491699 0.76028442 C-8.31337544 -0.07220135 -4.17104336 0.0099561 0 0 Z " fill="#0C53AC" transform="translate(51.32421875,1.6640625)"/>
<path d="M0 0 C2.19405653 0.02372085 4.38690103 0.02052196 6.58105469 0.01391602 C13.8420191 0.02963561 20.50339472 0.50311982 27.56542969 2.33618164 C30.17275736 2.50416372 30.17275736 2.50416372 32.37792969 2.33618164 C35.73177201 2.14069356 37.64218391 2.65449418 40.56542969 4.33618164 C40.23542969 6.64618164 39.90542969 8.95618164 39.56542969 11.33618164 C34.90523551 13.27792921 34.90523551 13.27792921 32.37792969 13.71118164 C30.38360663 14.15988566 30.38360663 14.15988566 29.67089844 16.17211914 C28.43613158 18.58929525 27.13482058 19.84999776 25.06542969 21.58618164 C24.45699219 22.10696289 23.84855469 22.62774414 23.22167969 23.16430664 C21.56542969 24.33618164 21.56542969 24.33618164 19.56542969 24.33618164 C19.07042969 25.82118164 19.07042969 25.82118164 18.56542969 27.33618164 C16.85839844 28.14477539 16.85839844 28.14477539 14.75292969 28.77368164 C11.06691606 30.07462763 8.90964044 31.07103094 6.56542969 34.33618164 C6.00745496 35.87202118 5.46804188 37.41464866 4.94042969 38.96118164 C0.95299004 49.41473965 -7.81801135 55.0983618 -17.55175781 59.76586914 C-20.48198439 61.36200882 -22.38930437 62.70375801 -24.43457031 65.33618164 C-24.9137939 67.69142825 -24.9137939 67.69142825 -24.68457031 70.08618164 C-24.63042969 71.28500977 -24.63042969 71.28500977 -24.57519531 72.50805664 C-24.52878906 73.11133789 -24.48238281 73.71461914 -24.43457031 74.33618164 C-23.07332031 75.01680664 -23.07332031 75.01680664 -21.68457031 75.71118164 C-19.26790365 76.91951497 -16.85123698 78.12784831 -14.43457031 79.33618164 C-14.43457031 80.98618164 -14.43457031 82.63618164 -14.43457031 84.33618164 C-12.45457031 84.33618164 -10.47457031 84.33618164 -8.43457031 84.33618164 C-10.89785243 86.79946376 -11.85052244 86.63249061 -15.24707031 86.83618164 C-18.09135231 87.00830158 -20.24222133 87.25863142 -22.89550781 88.32836914 C-25.75053122 89.46159382 -28.19078509 89.74024536 -31.24707031 89.96118164 C-32.71080078 90.07333008 -32.71080078 90.07333008 -34.20410156 90.18774414 C-34.94015625 90.23672852 -35.67621094 90.28571289 -36.43457031 90.33618164 C-36.43457031 89.34618164 -36.43457031 88.35618164 -36.43457031 87.33618164 C-37.42457031 87.33618164 -38.41457031 87.33618164 -39.43457031 87.33618164 C-40.58287009 85.06656564 -41.72829009 82.79557386 -42.87207031 80.52368164 C-43.19755859 79.88108398 -43.52304687 79.23848633 -43.85839844 78.57641602 C-46.82502393 72.67374879 -47.61451233 68.18477478 -47.67285156 61.64477539 C-47.68092331 60.78489517 -47.68899506 59.92501495 -47.6973114 59.03907776 C-47.71114397 57.21585092 -47.72186983 55.39259828 -47.72973633 53.56933594 C-47.7412151 51.71802096 -47.76160132 49.86673799 -47.79125977 48.015625 C-48.01807608 33.85544427 -47.20344768 23.84092934 -37.69628906 12.66430664 C-26.89297822 1.54380014 -14.8934878 -0.17205353 0 0 Z " fill="#736BE3" transform="translate(62.4345703125,13.663818359375)"/>
<path d="M0 0 C2.19405653 0.02372085 4.38690103 0.02052196 6.58105469 0.01391602 C13.8420191 0.02963561 20.50339472 0.50311982 27.56542969 2.33618164 C30.17275736 2.50416372 30.17275736 2.50416372 32.37792969 2.33618164 C35.73177201 2.14069356 37.64218391 2.65449418 40.56542969 4.33618164 C40.23542969 6.64618164 39.90542969 8.95618164 39.56542969 11.33618164 C34.90523551 13.27792921 34.90523551 13.27792921 32.37792969 13.71118164 C30.38360663 14.15988566 30.38360663 14.15988566 29.67089844 16.17211914 C28.43613158 18.58929525 27.13482058 19.84999776 25.06542969 21.58618164 C24.45699219 22.10696289 23.84855469 22.62774414 23.22167969 23.16430664 C21.56542969 24.33618164 21.56542969 24.33618164 19.56542969 24.33618164 C19.07042969 25.82118164 19.07042969 25.82118164 18.56542969 27.33618164 C15.48229459 26.13718466 12.50263477 24.85917687 9.56542969 23.33618164 C10.56542969 21.33618164 11.56542969 19.33618164 12.56542969 17.33618164 C13.55542969 17.33618164 14.54542969 17.33618164 15.56542969 17.33618164 C15.83355469 16.73805664 16.10167969 16.13993164 16.37792969 15.52368164 C17.56460375 13.3377031 18.66142081 11.9228557 20.56542969 10.33618164 C21.22542969 10.33618164 21.88542969 10.33618164 22.56542969 10.33618164 C23.22542969 9.01618164 23.88542969 7.69618164 24.56542969 6.33618164 C21.60562058 7.65937822 21.60562058 7.65937822 19.32373047 9.89868164 C16.68798086 12.05354052 14.60015433 11.62593761 11.24511719 11.52368164 C9.98699219 11.50047852 8.72886719 11.47727539 7.43261719 11.45336914 C4.79457609 11.37593153 2.15655471 11.29781884 -0.48144531 11.21899414 C-11.69299422 11.01348713 -20.87246238 12.62706566 -29.43457031 20.33618164 C-34.67212923 27.21887124 -37.69710683 34.19538019 -37.66503906 42.90649414 C-37.66213867 44.7453418 -37.66213867 44.7453418 -37.65917969 46.62133789 C-37.64693359 47.88848633 -37.6346875 49.15563477 -37.62207031 50.46118164 C-37.62142578 51.73606445 -37.62078125 53.01094727 -37.62011719 54.32446289 C-37.71923736 61.41501957 -37.71923736 61.41501957 -36.43457031 68.33618164 C-35.77457031 67.01618164 -35.11457031 65.69618164 -34.43457031 64.33618164 C-31.79457031 64.99618164 -29.15457031 65.65618164 -26.43457031 66.33618164 C-26.22832031 67.59430664 -26.02207031 68.85243164 -25.80957031 70.14868164 C-24.94424049 73.65326743 -24.75122427 74.12966819 -21.55957031 76.21118164 C-20.01269531 76.76805664 -20.01269531 76.76805664 -18.43457031 77.33618164 C-17.10123698 78.00284831 -15.76790365 78.66951497 -14.43457031 79.33618164 C-14.43457031 80.98618164 -14.43457031 82.63618164 -14.43457031 84.33618164 C-12.45457031 84.33618164 -10.47457031 84.33618164 -8.43457031 84.33618164 C-10.89785243 86.79946376 -11.85052244 86.63249061 -15.24707031 86.83618164 C-18.09135231 87.00830158 -20.24222133 87.25863142 -22.89550781 88.32836914 C-25.75053122 89.46159382 -28.19078509 89.74024536 -31.24707031 89.96118164 C-32.71080078 90.07333008 -32.71080078 90.07333008 -34.20410156 90.18774414 C-34.94015625 90.23672852 -35.67621094 90.28571289 -36.43457031 90.33618164 C-36.43457031 89.34618164 -36.43457031 88.35618164 -36.43457031 87.33618164 C-37.42457031 87.33618164 -38.41457031 87.33618164 -39.43457031 87.33618164 C-40.58287009 85.06656564 -41.72829009 82.79557386 -42.87207031 80.52368164 C-43.19755859 79.88108398 -43.52304687 79.23848633 -43.85839844 78.57641602 C-46.82502393 72.67374879 -47.61451233 68.18477478 -47.67285156 61.64477539 C-47.68092331 60.78489517 -47.68899506 59.92501495 -47.6973114 59.03907776 C-47.71114397 57.21585092 -47.72186983 55.39259828 -47.72973633 53.56933594 C-47.7412151 51.71802096 -47.76160132 49.86673799 -47.79125977 48.015625 C-48.01807608 33.85544427 -47.20344768 23.84092934 -37.69628906 12.66430664 C-26.89297822 1.54380014 -14.8934878 -0.17205353 0 0 Z " fill="#F1F7FC" transform="translate(62.4345703125,13.663818359375)"/>
<path d="M0 0 C1.6328125 1.5859375 1.6328125 1.5859375 3.125 3.375 C3.62257812 3.96023437 4.12015625 4.54546875 4.6328125 5.1484375 C7.61886728 9.19240883 8.22934934 11.95431444 8 17 C7.01 17.33 6.02 17.66 5 18 C3.840084 22.55810739 3.91995528 26.89989485 4 31.5625 C4.15402208 40.5804928 4.15402208 40.5804928 3 44 C0.06043451 46.42081864 -1.81521831 46.98088465 -5.625 47.375 C-9 47 -9 47 -10.9375 45.5 C-11.288125 45.005 -11.63875 44.51 -12 44 C-11.01 44 -10.02 44 -9 44 C-9.99 43.34 -10.98 42.68 -12 42 C-12.4375 39.5625 -12.4375 39.5625 -12 37 C-8.75530641 33.19101187 -3.6759966 32.89394053 1 32 C1.33 29.03 1.66 26.06 2 23 C-1.92964632 25.08040099 -4.63108889 27.52804739 -7.5703125 30.79296875 C-9 32 -9 32 -12 32 C-12.020625 32.845625 -12.04125 33.69125 -12.0625 34.5625 C-13.35250013 39.29250047 -16.17425728 42.01362346 -20 45 C-20.66 45 -21.32 45 -22 45 C-22 46.65 -22 48.3 -22 50 C-22.66 50 -23.32 50 -24 50 C-24.5775 50.804375 -25.155 51.60875 -25.75 52.4375 C-28 55 -28 55 -31.1875 55.875 C-32.115625 55.91625 -33.04375 55.9575 -34 56 C-35 55 -35 55 -35.0625 52.4375 C-35.041875 51.633125 -35.02125 50.82875 -35 50 C-35.63808594 49.72285156 -36.27617188 49.44570312 -36.93359375 49.16015625 C-37.75988281 48.79792969 -38.58617187 48.43570313 -39.4375 48.0625 C-40.26121094 47.70285156 -41.08492187 47.34320313 -41.93359375 46.97265625 C-44 46 -44 46 -45 45 C-45.81465996 40.10172809 -45.6507967 36.921962 -42.75 32.8125 C-39.84287406 30.29711444 -36.65643801 28.80899593 -33.1875 27.1875 C-23.44641925 22.52241666 -18.15065705 16.36707606 -14.11328125 6.4609375 C-12.29624005 2.44432011 -10.01652656 -0.08339702 -5.9375 -1.9375 C-3.40328932 -2.01924873 -2.18096552 -1.27736399 0 0 Z " fill="#0E66D1" transform="translate(82,43)"/>
<path d="M0 0 C4.60291437 2.42931592 7.65601848 5.31203695 10 10 C10.41935568 13.00538235 10.59226552 15.12465165 8.84765625 17.703125 C7.93164608 18.82974138 6.98196292 19.93007261 5.99609375 20.99609375 C4.45281625 24.10080495 5.43111675 26.62056259 6 30 C6.13004937 33.31332672 6.09527466 36.62221748 6.0625 39.9375 C6.05798828 40.81212891 6.05347656 41.68675781 6.04882812 42.58789062 C6.03714834 44.72529047 6.01921689 46.86265463 6 49 C5.67 49 5.34 49 5 49 C5 43.72 5 38.44 5 33 C4.34 33 3.68 33 3 33 C3.01571045 34.12643921 3.01571045 34.12643921 3.03173828 35.27563477 C3.07351891 38.70455529 3.09939622 42.13342207 3.125 45.5625 C3.14175781 46.74392578 3.15851563 47.92535156 3.17578125 49.14257812 C3.2094585 55.15396759 3.11038894 60.34183122 1 66 C0.02402173 62.82990517 0.05679165 60.28911129 0.3125 57 C0.40725425 54.38984327 0.40725425 54.38984327 0 52 C-3.71996329 48.36860726 -6.99473654 47.73606816 -12 47 C-11.94779297 48.82724609 -11.94779297 48.82724609 -11.89453125 50.69140625 C-11.86637488 52.31509028 -11.83907671 53.93878935 -11.8125 55.5625 C-11.78736328 56.36236328 -11.76222656 57.16222656 -11.73632812 57.98632812 C-11.66943455 63.44930376 -12.46631339 67.1432355 -15 72 C-15.33 72.33 -15.66 72.66 -16 73 C-13.38557927 74.32342886 -10.88836256 75.45008994 -8 76 C-4.97136086 74.36318104 -4.97136086 74.36318104 -3 72 C-4.55500981 75.81684226 -7.03595495 78.19195732 -10 81 C-10.5249707 80.79648926 -11.04994141 80.59297852 -11.59082031 80.38330078 C-17.64676517 78.182701 -23.34552936 77.3409458 -29.75 76.875 C-31.57830833 76.7288379 -33.4064421 76.58047212 -35.234375 76.4296875 C-36.03069336 76.37022949 -36.82701172 76.31077148 -37.64746094 76.24951172 C-40.14148714 75.98499379 -42.54907896 75.52659479 -45 75 C-45.66 76.32 -46.32 77.64 -47 79 C-47.66 78.67 -48.32 78.34 -49 78 C-46.3465927 73.7742032 -43.58963393 70.50416646 -40 67 C-38.90115594 65.82683799 -37.81822238 64.63861128 -36.75 63.4375 C-36.24984375 62.87933594 -35.7496875 62.32117188 -35.234375 61.74609375 C-33.88035978 59.83076209 -33.55920711 58.2509261 -33 56 C-31.35443434 54.96564444 -29.6829392 53.97236487 -28 53 C-26.41269947 51.45248144 -24.91273301 49.85441423 -23.4296875 48.20703125 C-22 47 -22 47 -19 47 C-19 49.97 -19 52.94 -19 56 C-20.03125 56.268125 -21.0625 56.53625 -22.125 56.8125 C-25.6485042 57.80998897 -28.76880827 59.2661898 -32 61 C-32 62.65 -32 64.3 -32 66 C-28.7 66.66 -25.4 67.32 -22 68 C-22 68.33 -22 68.66 -22 69 C-25.3 69 -28.6 69 -32 69 C-28.93570224 70.53214888 -26.3834358 70.22938548 -23 70 C-20.07201057 68.84587664 -20.07201057 68.84587664 -18 67 C-18 64.55685967 -18.05829557 62.13236971 -18.140625 59.69140625 C-18.17781952 57.98178669 -18.21424928 56.27215036 -18.25 54.5625 C-18.30027344 53.27375977 -18.30027344 53.27375977 -18.3515625 51.95898438 C-18.45093676 45.55431356 -18.45093676 45.55431356 -16.0234375 42.5703125 C-15.35570312 42.05210938 -14.68796875 41.53390625 -14 41 C-13.22122621 37.6512727 -13.58270705 35.75217382 -15.24609375 32.75390625 C-17.6811139 29.05583325 -20.33652835 25.53529871 -23 22 C-19.87526246 17.98248031 -17.43017107 15.56483589 -13 13 C-12.566875 12.360625 -12.13375 11.72125 -11.6875 11.0625 C-9.83265176 8.79546326 -8.57340678 8.2382282 -5.9375 7.0625 C-2.88394251 5.6561827 -2.17286045 5.31691082 -0.5 2.25 C-0.335 1.5075 -0.17 0.765 0 0 Z " fill="#4076BC" transform="translate(103,19)"/>
<path d="M0 0 C1.59698278 0.02009803 3.19399002 0.03834295 4.79101562 0.0546875 C8.67378881 0.09841735 12.55537022 0.1672593 16.4375 0.25 C16.4375 1.24 16.4375 2.23 16.4375 3.25 C13.19323413 4.33142196 10.96104974 4.32051256 7.5546875 4.2421875 C6.38679688 4.22542969 5.21890625 4.20867188 4.015625 4.19140625 C1.57015106 4.14755281 -0.87519304 4.09562695 -3.3203125 4.03515625 C-14.18708789 3.90408769 -23.28542532 5.79752111 -31.5625 13.25 C-36.80005892 20.1326896 -39.82503651 27.10919855 -39.79296875 35.8203125 C-39.79103516 37.04621094 -39.78910156 38.27210937 -39.78710938 39.53515625 C-39.77486328 40.80230469 -39.76261719 42.06945313 -39.75 43.375 C-39.74935547 44.64988281 -39.74871094 45.92476562 -39.74804688 47.23828125 C-39.84716705 54.32883793 -39.84716705 54.32883793 -38.5625 61.25 C-37.9025 59.93 -37.2425 58.61 -36.5625 57.25 C-33.9225 57.91 -31.2825 58.57 -28.5625 59.25 C-28.35625 60.508125 -28.15 61.76625 -27.9375 63.0625 C-27.07217018 66.56708579 -26.87915396 67.04348655 -23.6875 69.125 C-22.140625 69.681875 -22.140625 69.681875 -20.5625 70.25 C-19.22916667 70.91666667 -17.89583333 71.58333333 -16.5625 72.25 C-16.5625 73.9 -16.5625 75.55 -16.5625 77.25 C-14.5825 77.25 -12.6025 77.25 -10.5625 77.25 C-13.02578212 79.71328212 -13.97845213 79.54630897 -17.375 79.75 C-20.219282 79.92211994 -22.37015102 80.17244978 -25.0234375 81.2421875 C-27.87846091 82.37541218 -30.31871478 82.65406372 -33.375 82.875 C-34.83873047 82.98714844 -34.83873047 82.98714844 -36.33203125 83.1015625 C-37.06808594 83.15054688 -37.80414063 83.19953125 -38.5625 83.25 C-38.5625 82.26 -38.5625 81.27 -38.5625 80.25 C-39.5525 80.25 -40.5425 80.25 -41.5625 80.25 C-41.53929687 79.29738281 -41.51609375 78.34476562 -41.4921875 77.36328125 C-41.47414063 76.10902344 -41.45609375 74.85476562 -41.4375 73.5625 C-41.41429687 72.32113281 -41.39109375 71.07976562 -41.3671875 69.80078125 C-41.34659853 66.38175775 -41.34659853 66.38175775 -42.5559082 63.98999023 C-44.50082811 58.69582672 -43.89453203 52.85530158 -43.87817383 47.26806641 C-43.87502891 45.02065837 -43.8984425 42.7745879 -43.92382812 40.52734375 C-43.97710492 28.71442441 -42.30712962 19.53654683 -34.5625 10.25 C-32.07136357 7.88499706 -29.5412324 5.95831988 -26.5625 4.25 C-26.01811279 3.90437012 -25.47372559 3.55874023 -24.9128418 3.20263672 C-17.14599171 -1.05778789 -8.57545197 -0.18829579 0 0 Z " fill="#DEDFE1" transform="translate(64.5625,20.75)"/>
<path d="M0 0 C1.73828125 1.59375 1.73828125 1.59375 3 3 C2.0925 3.4125 1.185 3.825 0.25 4.25 C-4.84107125 6.99134606 -6.79428751 9.20914221 -8.625 14.625 C-12.61243965 25.07855801 -21.38344104 30.76218016 -31.1171875 35.4296875 C-34.02441862 37.0133012 -35.91226837 38.44179364 -38 41 C-38.80765878 44.64721696 -38.80765878 44.64721696 -39 48 C-39.33 48 -39.66 48 -40 48 C-40 46.02 -40 44.04 -40 42 C-40.763125 42.061875 -41.52625 42.12375 -42.3125 42.1875 C-45.48780806 41.96596688 -45.95735659 41.28224968 -48 39 C-43.21484375 34.21484375 -38.4296875 29.4296875 -33.64453125 24.64453125 C-32.8347583 23.82766846 -32.02498535 23.01080566 -31.19067383 22.16918945 C-29.92273301 20.91368358 -28.63493657 19.67644845 -27.29956055 18.49291992 C-24.8657219 16.32781126 -24.02656618 15.11697928 -23.29296875 11.88671875 C-23.25816406 10.83097656 -23.22335938 9.77523437 -23.1875 8.6875 C-23.13980469 7.61886719 -23.09210937 6.55023438 -23.04296875 5.44921875 C-23.02169922 4.23685547 -23.02169922 4.23685547 -23 3 C-7.21085914 -3.69297863 -7.21085914 -3.69297863 0 0 Z " fill="#60D3F3" transform="translate(76,38)"/>
<path d="M0 0 C4.60291437 2.42931592 7.65601848 5.31203695 10 10 C10.59225835 13.03532405 10.48089152 15.13258058 8.96484375 17.8671875 C3.03306623 25.90770435 -4.55652644 33.34039666 -12 40 C-12.33 40 -12.66 40 -13 40 C-13.13535156 39.443125 -13.27070312 38.88625 -13.41015625 38.3125 C-15.2395989 31.82729014 -18.27977959 27.74608464 -23 23 C-21.06537946 18.99080764 -19.41079629 16.81120786 -15.5 14.5625 C-12.94482612 13.20008273 -12.94482612 13.20008273 -11.6875 11.0625 C-9.83265176 8.79546326 -8.57340678 8.2382282 -5.9375 7.0625 C-2.88394251 5.6561827 -2.17286045 5.31691082 -0.5 2.25 C-0.335 1.5075 -0.17 0.765 0 0 Z " fill="#909090" transform="translate(103,19)"/>
<path d="M0 0 C1.65 0.33 3.3 0.66 5 1 C5.61026468 12.88886012 3.17817713 22.35888173 -4 32 C-11.44299879 40.05939621 -20.60750258 44.57265593 -31.57714844 45.20678711 C-35.10271846 45.3105328 -38.62641046 45.32620308 -42.15332031 45.31567383 C-44.36313397 45.31251695 -46.57160139 45.33601743 -48.78125 45.36132812 C-58.45699323 45.40434292 -67.90098767 44.93927571 -76 39 C-76 38.67 -76 38.34 -76 38 C-74.083412 37.97287847 -72.1667127 37.95354903 -70.25 37.9375 C-68.64898437 37.92009766 -68.64898437 37.92009766 -67.015625 37.90234375 C-64 38 -64 38 -62.25976562 38.5 C-59.09305173 39.20067308 -56.06942169 39.11094025 -52.828125 39.09765625 C-52.1457074 39.0962413 -51.46328979 39.09482635 -50.76019287 39.09336853 C-48.59008316 39.08779084 -46.4200783 39.07524254 -44.25 39.0625 C-42.77474108 39.05748211 -41.29948053 39.05291971 -39.82421875 39.04882812 C-36.21611202 39.03782875 -32.60806625 39.02057953 -29 39 C-30.23743129 39 -31.47481163 39.01725858 -32.7121582 39.03173828 C-35.89004508 39.06589748 -39.06783865 39.09089008 -42.24584961 39.10986328 C-43.61827673 39.11991532 -44.99068247 39.13355904 -46.36303711 39.15087891 C-48.34219102 39.17520983 -50.32150245 39.18543093 -52.30078125 39.1953125 C-53.48841064 39.20578613 -54.67604004 39.21625977 -55.8996582 39.22705078 C-58.86503568 39.00988399 -60.50912128 38.55598198 -63 37 C-61.6402002 36.97812622 -61.6402002 36.97812622 -60.25292969 36.95581055 C-56.83066369 36.89409112 -53.40911549 36.81982557 -49.98730469 36.73754883 C-48.51735382 36.70466582 -47.04728777 36.67652506 -45.57714844 36.65356445 C-36.31930421 36.50516108 -27.92455393 35.77046404 -19 33 C-18.67 33.66 -18.34 34.32 -18 35 C-10.65283514 30.62668758 -4.59637069 24.30089667 -2 16 C-1.00902777 10.70987786 -0.49394546 5.35540864 0 0 Z " fill="#054095" transform="translate(109,69)"/>
<path d="M0 0 C0.66 0.33 1.32 0.66 2 1 C-0.17175431 3.92351542 -2.3658603 6.40299171 -5.1875 8.6875 C-8.01647233 10.69390251 -8.01647233 10.69390251 -9 13 C-9.99 13 -10.98 13 -12 13 C-12.268125 13.969375 -12.53625 14.93875 -12.8125 15.9375 C-13.204375 16.948125 -13.59625 17.95875 -14 19 C-17 20 -17 20 -20 19 C-22.9344153 19.76035087 -22.9344153 19.76035087 -26.0625 20.9375 C-31.83050847 23 -31.83050847 23 -34 23 C-34 26.96 -34 30.92 -34 35 C-34.33 35 -34.66 35 -35 35 C-35.02578125 34.25234375 -35.0515625 33.5046875 -35.078125 32.734375 C-35.35189995 26.74011088 -35.35189995 26.74011088 -37.625 21.3125 C-40.83813865 19.53681811 -43.38729361 19.79550719 -47 20 C-47.33 19.67 -47.66 19.34 -48 19 C-48.33 19.66 -48.66 20.32 -49 21 C-49.66 21 -50.32 21 -51 21 C-51.33 20.01 -51.66 19.02 -52 18 C-52.66 18.99 -53.32 19.98 -54 21 C-54.33 19.35 -54.66 17.7 -55 16 C-46.66214549 9.46092121 -40.23495583 5.70260237 -29.4140625 6.11328125 C-27.52300781 6.1587207 -27.52300781 6.1587207 -25.59375 6.20507812 C-22.95512143 6.2764977 -20.31694863 6.36754177 -17.6796875 6.47851562 C-9.50752812 6.77847359 -9.50752812 6.77847359 -2.5859375 2.98046875 C-1.73257813 1.99691406 -0.87921875 1.01335938 0 0 Z " fill="#B850E0" transform="translate(87,18)"/>
<path d="M0 0 C2 2 2 2 2.125 5.125 C2.08375 6.07375 2.0425 7.0225 2 8 C1.01 8.33 0.02 8.66 -1 9 C-2.159916 13.55810739 -2.08004472 17.89989485 -2 22.5625 C-1.84597792 31.5804928 -1.84597792 31.5804928 -3 35 C-5.93956549 37.42081864 -7.81521831 37.98088465 -11.625 38.375 C-15 38 -15 38 -16.9375 36.5 C-17.288125 36.005 -17.63875 35.51 -18 35 C-17.01 35 -16.02 35 -15 35 C-15.99 34.34 -16.98 33.68 -18 33 C-18.4375 30.5625 -18.4375 30.5625 -18 28 C-14.75530641 24.19101187 -9.6759966 23.89394053 -5 23 C-4.67 20.03 -4.34 17.06 -4 14 C-7.92964632 16.08040099 -10.63108889 18.52804739 -13.5703125 21.79296875 C-15 23 -15 23 -18 23 C-18.020625 23.845625 -18.04125 24.69125 -18.0625 25.5625 C-19.35250013 30.29250047 -22.17425728 33.01362346 -26 36 C-26.66 36 -27.32 36 -28 36 C-28 37.65 -28 39.3 -28 41 C-28.66 41 -29.32 41 -30 41 C-30.86625 42.2065625 -30.86625 42.2065625 -31.75 43.4375 C-34 46 -34 46 -37.1875 46.875 C-38.115625 46.91625 -39.04375 46.9575 -40 47 C-41 46 -41 46 -41.29772949 43.70820618 C-40.90925008 40.17452083 -39.75046519 39.14451298 -37.23632812 36.66870117 C-36.41547729 35.848228 -35.59462646 35.02775482 -34.74890137 34.18241882 C-33.85207642 33.3114003 -32.95525146 32.44038177 -32.03125 31.54296875 C-31.12121216 30.64000565 -30.21117432 29.73704254 -29.27355957 28.80671692 C-26.85790574 26.41012348 -24.42761518 24.02892534 -21.99395752 21.65063477 C-19.51168719 19.21957767 -17.04356932 16.77424514 -14.57421875 14.33007812 C-9.72989525 9.53932505 -4.86995769 4.76468892 0 0 Z " fill="#002D99" transform="translate(88,52)"/>
<path d="M0 0 C1.47398003 -0.0099852 1.47398003 -0.0099852 2.97773743 -0.02017212 C5.05113871 -0.03026276 7.12457223 -0.03499025 9.19799805 -0.03466797 C12.33633339 -0.03902509 15.47324257 -0.07533941 18.61132812 -0.11328125 C35.14881797 -0.20739116 48.1515912 1.85139881 60.9296875 13.3671875 C68.04868731 20.82390077 73.27455171 29.90396935 73.67578125 40.3359375 C71.60666964 38.26682589 71.08522856 37.07156536 70.05078125 34.3984375 C65.02827248 22.95521239 57.17512142 14.17795198 45.703125 8.9921875 C38.3027654 6.2033575 31.6839906 5.17381612 23.82421875 5.1328125 C22.9695401 5.12711243 22.11486145 5.12141235 21.23428345 5.11553955 C19.42719754 5.1061136 17.62009464 5.09956515 15.81298828 5.09570312 C13.08073955 5.08604342 10.3492585 5.05501643 7.6171875 5.0234375 C-7.33924785 4.93242124 -21.47749038 6.4077675 -32.69335938 17.37109375 C-34.9439276 19.65516164 -37.13390139 21.99421572 -39.32421875 24.3359375 C-40.97851881 26.0155671 -42.64965887 27.67640957 -44.32421875 29.3359375 C-44.65421875 28.6759375 -44.98421875 28.0159375 -45.32421875 27.3359375 C-39.3663112 14.96182181 -29.83060808 7.46257751 -17.32421875 2.3359375 C-11.47091528 0.30449965 -6.17061637 0.014729 0 0 Z " fill="#149AE7" transform="translate(51.32421875,1.6640625)"/>
<path d="M0 0 C1.15628906 -0.02126953 1.15628906 -0.02126953 2.3359375 -0.04296875 C4.84334888 0.20948393 6.45761902 0.93556533 8.625 2.1875 C8.295 4.4975 7.965 6.8075 7.625 9.1875 C2.96480583 11.12924757 2.96480583 11.12924757 0.4375 11.5625 C-1.55682305 12.01120402 -1.55682305 12.01120402 -2.26953125 14.0234375 C-3.50429811 16.44061361 -4.80560911 17.70131612 -6.875 19.4375 C-7.4834375 19.95828125 -8.091875 20.4790625 -8.71875 21.015625 C-10.375 22.1875 -10.375 22.1875 -12.375 22.1875 C-12.705 23.1775 -13.035 24.1675 -13.375 25.1875 C-16.4581351 23.98850302 -19.43779492 22.71049523 -22.375 21.1875 C-21.375 19.1875 -20.375 17.1875 -19.375 15.1875 C-18.385 15.1875 -17.395 15.1875 -16.375 15.1875 C-16.106875 14.589375 -15.83875 13.99125 -15.5625 13.375 C-14.37582594 11.18902146 -13.27900887 9.77417406 -11.375 8.1875 C-10.715 8.1875 -10.055 8.1875 -9.375 8.1875 C-8.16871992 5.85535852 -7.2095262 3.69107861 -6.375 1.1875 C-4.04904054 0.02452027 -2.58776769 0.02149309 0 0 Z " fill="#D3D3D3" transform="translate(94.375,15.8125)"/>
<path d="M0 0 C4.60291437 2.42931592 7.65601848 5.31203695 10 10 C10.59225835 13.03532405 10.48089152 15.13258058 8.96484375 17.8671875 C3.03306623 25.90770435 -4.55652644 33.34039666 -12 40 C-12.33 40 -12.66 40 -13 40 C-14.76565406 34.79132052 -14.76565406 34.79132052 -15 32 C-13.0625 29.3125 -13.0625 29.3125 -11 27 C-11.13149826 24.24875747 -11.13149826 24.24875747 -12 22 C-11.236875 22.226875 -10.47375 22.45375 -9.6875 22.6875 C-8.800625 22.790625 -7.91375 22.89375 -7 23 C-5.2912354 21.62485459 -5.2912354 21.62485459 -4 20 C-3.34 20 -2.68 20 -2 20 C-1.67 19.34 -1.34 18.68 -1 18 C-0.34 18 0.32 18 1 18 C1.66 17.01 2.32 16.02 3 15 C3.66 15 4.32 15 5 15 C3.15083921 10.93184627 1.33557632 7.9905167 -2 5 C-1.34 3.35 -0.68 1.7 0 0 Z " fill="#6A6B6E" transform="translate(103,19)"/>
<path d="M0 0 C2.61190055 2.61190055 2.92601024 4.56730374 3.11352539 8.19824219 C3.10828857 8.97329102 3.10305176 9.74833984 3.09765625 10.546875 C3.09443359 11.39121094 3.09121094 12.23554687 3.08789062 13.10546875 C3.07951172 13.97816406 3.07113281 14.85085937 3.0625 15.75 C3.05798828 16.63816406 3.05347656 17.52632812 3.04882812 18.44140625 C3.037074 20.62767329 3.02064249 22.81380179 3 25 C2.67 25 2.34 25 2 25 C2 19.72 2 14.44 2 9 C1.34 9 0.68 9 0 9 C0.01047363 9.75095947 0.02094727 10.50191895 0.03173828 11.27563477 C0.07351891 14.70455529 0.09939622 18.13342207 0.125 21.5625 C0.14175781 22.74392578 0.15851563 23.92535156 0.17578125 25.14257812 C0.2094585 31.15396759 0.11038894 36.34183122 -2 42 C-2.95565455 38.86516349 -2.97064241 36.31697553 -2.75 33.0625 C-2.72221596 29.27831396 -2.77730871 28.31041816 -5.0625 25.125 C-8.28504563 22.79379678 -11.48580981 20.86045363 -15 19 C-14.83566075 13.27003831 -10.82273925 10.37524908 -6.9375 6.6875 C-6.27427734 6.04232422 -5.61105469 5.39714844 -4.92773438 4.73242188 C-3.29382329 3.14552982 -1.65131853 1.56873672 0 0 Z " fill="#1061C1" transform="translate(106,43)"/>
<path d="M0 0 C2.80156538 1.40078269 3.23266219 3.51435843 4.46020508 6.27026367 C9.67037582 17.82426958 16.79973327 26.29562823 29.00024414 31.015625 C39.41704961 34.43391748 50.44714937 34.34499081 61.29443359 34.31567383 C63.76053034 34.31248639 66.22545436 34.33616535 68.69140625 34.36132812 C76.51970366 34.39333935 83.78637367 34.41522023 91 31 C92.051875 30.56300781 93.10375 30.12601563 94.1875 29.67578125 C103.29232112 25.26247212 110.88814479 19.89018297 116 11 C116.495 11.99 116.495 11.99 117 13 C109.24148779 24.57469098 99.51543868 32.78057892 85.83203125 36.109375 C78.53161766 37.48864384 71.12722926 37.33500993 63.72436523 37.31567383 C61.2031706 37.31251961 58.68315925 37.33601687 56.16210938 37.36132812 C38.70016934 37.4300476 25.31765398 34.5873845 12.29296875 22.390625 C7.11252756 16.98955174 0 7.86510427 0 0 Z " fill="#000001" transform="translate(3,91)"/>
<path d="M0 0 C0.33 0 0.66 0 1 0 C1.04952706 4.34161825 1.08577954 8.68308575 1.10986328 13.02490234 C1.11990591 14.50116847 1.13354265 15.97741479 1.15087891 17.45361328 C1.17520421 19.57850034 1.1865004 21.70312385 1.1953125 23.828125 C1.20578613 25.1059082 1.21625977 26.38369141 1.22705078 27.70019531 C1 31 1 31 -1 35 C-0.67 29.72 -0.34 24.44 0 19 C-1.65 18.67 -3.3 18.34 -5 18 C-4.94779297 19.01707031 -4.94779297 19.01707031 -4.89453125 20.0546875 C-4.5828162 30.77174766 -6.64029636 39.00701953 -14 47 C-17.42996449 50.40769199 -20.14901939 53.07852552 -25 54 C-24.67 53.01 -24.34 52.02 -24 51 C-26.475 51.495 -26.475 51.495 -29 52 C-26.89436111 50.28429424 -25.23334553 49.07368806 -22.625 48.25 C-18.7607885 46.40989929 -16.59306473 43.33266739 -14 40 C-14.99 39.67 -15.98 39.34 -17 39 C-15.37660195 37.29115995 -13.70680947 35.62553283 -12 34 C-11.34 34 -10.68 34 -10 34 C-8.81537388 27.22075306 -8.66605966 20.43053054 -8.4375 13.5625 C-8.39431641 12.35400391 -8.35113281 11.14550781 -8.30664062 9.90039062 C-8.20110596 6.93369394 -8.09899286 3.96692098 -8 1 C-7.34 1 -6.68 1 -6 1 C-5.67 5.95 -5.34 10.9 -5 16 C-3.68 16 -2.36 16 -1 16 C-0.67 10.72 -0.34 5.44 0 0 Z " fill="#0B54B2" transform="translate(114,51)"/>
<path d="M0 0 C0.556875 0.268125 1.11375 0.53625 1.6875 0.8125 C1.2234375 1.21082031 0.759375 1.60914063 0.28125 2.01953125 C-1.60710972 4.14393593 -2.09085163 5.76374992 -2.8125 8.5 C-3.19728516 9.83224609 -3.19728516 9.83224609 -3.58984375 11.19140625 C-4.02649431 12.77514963 -4.44191256 14.36526216 -4.81640625 15.96484375 C-6.72066842 22.68968568 -11.36594812 26.44517544 -17.3125 29.8125 C-22.80419064 32.04038195 -28.50747824 33.64767656 -34.3125 34.8125 C-34.9725 34.4825 -35.6325 34.1525 -36.3125 33.8125 C-33.81771442 30.91040249 -31.15940911 29.72159937 -27.6875 28.1875 C-17.90592015 23.37359069 -12.51819855 17.29431227 -8.42578125 7.28125 C-6.72776944 3.51583433 -4.59429407 -0.37251033 0 0 Z " fill="#0098DF" transform="translate(76.3125,42.1875)"/>
<path d="M0 0 C0 0.99 0 1.98 0 3 C-0.45375 3.433125 -0.9075 3.86625 -1.375 4.3125 C-3.65748014 6.68276783 -4.20521059 8.82084236 -5 12 C-4.87625 13.11375 -4.7525 14.2275 -4.625 15.375 C-5.14027981 20.35603815 -7.51353681 22.15167366 -11.0546875 25.49609375 C-13 27 -13 27 -15 27 C-15 26.34 -15 25.68 -15 25 C-18.96 25.495 -18.96 25.495 -23 26 C-22.23587913 24.87043002 -21.46340197 23.74651022 -20.6875 22.625 C-20.25824219 21.99851562 -19.82898437 21.37203125 -19.38671875 20.7265625 C-18 19 -18 19 -15 17 C-14.41518879 14.11404054 -14.41518879 14.11404054 -14.3125 10.875 C-14.209375 8.93625 -14.10625 6.9975 -14 5 C-9.38 3.35 -4.76 1.7 0 0 Z " fill="#9BE3F8" transform="translate(67,36)"/>
<path d="M0 0 C0.99 0 1.98 0 3 0 C2.67 0.99 2.34 1.98 2 3 C1.34 3 0.68 3 0 3 C-1.159916 7.55810739 -1.08004472 11.89989485 -1 16.5625 C-0.84597792 25.5804928 -0.84597792 25.5804928 -2 29 C-4.93956549 31.42081864 -6.81521831 31.98088465 -10.625 32.375 C-14 32 -14 32 -15.9375 30.5 C-16.288125 30.005 -16.63875 29.51 -17 29 C-16.01 29 -15.02 29 -14 29 C-14.99 28.34 -15.98 27.68 -17 27 C-17.4375 24.5625 -17.4375 24.5625 -17 22 C-13.75530641 18.19101187 -8.6759966 17.89394053 -4 17 C-3.67 14.03 -3.34 11.06 -3 8 C-3.99 7.67 -4.98 7.34 -6 7 C-4.71937515 5.2925002 -3.38232443 3.62626404 -2 2 C-1.34 2 -0.68 2 0 2 C0 1.34 0 0.68 0 0 Z " fill="#0B51AF" transform="translate(87,58)"/>
<path d="M0 0 C1.2684375 0.495 1.2684375 0.495 2.5625 1 C3.820625 1.350625 5.07875 1.70125 6.375 2.0625 C7.426875 2.371875 8.47875 2.68125 9.5625 3 C9.5625 4.98 9.5625 6.96 9.5625 9 C11.5425 9 13.5225 9 15.5625 9 C13.09921788 11.46328212 12.14654787 11.29630897 8.75 11.5 C5.905718 11.67211994 3.75484898 11.92244978 1.1015625 12.9921875 C-1.75346091 14.12541218 -4.19371478 14.40406372 -7.25 14.625 C-8.22582031 14.69976562 -9.20164062 14.77453125 -10.20703125 14.8515625 C-11.31111328 14.92503906 -11.31111328 14.92503906 -12.4375 15 C-13.06640625 13.1484375 -13.06640625 13.1484375 -13.4375 11 C-11.375 8.625 -11.375 8.625 -8.4375 6 C-7.94378906 5.443125 -7.45007813 4.88625 -6.94140625 4.3125 C-3.09809028 0 -3.09809028 0 0 0 Z " fill="#CF6E26" transform="translate(38.4375,89)"/>
<path d="M0 0 C0 3 0 3 -1.13671875 4.5 C-1.90435547 5.2425 -1.90435547 5.2425 -2.6875 6 C-3.43580078 6.7425 -3.43580078 6.7425 -4.19921875 7.5 C-6 9 -6 9 -8.31640625 10.328125 C-11.70980019 12.44220449 -14.40431944 14.9601171 -17.25 17.75 C-17.79140625 18.25015625 -18.3328125 18.7503125 -18.890625 19.265625 C-22.64526172 22.94516899 -23.75445621 25.57075405 -24 31 C-24.33 31 -24.66 31 -25 31 C-25 29.02 -25 27.04 -25 25 C-25.763125 25.061875 -26.52625 25.12375 -27.3125 25.1875 C-30.48780806 24.96596688 -30.95735659 24.28224968 -33 22 C-30.72176485 19.48740634 -28.39747209 17.02236076 -26.0625 14.5625 C-25.42248047 13.85544922 -24.78246094 13.14839844 -24.12304688 12.41992188 C-20.592206 8.74855002 -18.16870071 6.60207786 -12.99609375 6.02734375 C-11.01802734 6.01380859 -11.01802734 6.01380859 -9 6 C-9 6.66 -9 7.32 -9 8 C-7.68712379 6.85459775 -6.37470979 5.70866567 -5.0625 4.5625 C-4.33160156 3.92441406 -3.60070312 3.28632812 -2.84765625 2.62890625 C-1.87860647 1.77458541 -0.91348825 0.91348825 0 0 Z " fill="#70C9EB" transform="translate(61,55)"/>
<path d="M0 0 C0 0.99 0 1.98 0 3 C-0.66 3.66 -1.32 4.32 -2 5 C1.29508099 6.6475405 4.94392273 6.14526809 8.5625 6.125 C9.3757373 6.12306641 10.18897461 6.12113281 11.02685547 6.11914062 C16.41803642 6.0802697 21.6606068 5.79102121 27 5 C23.33040004 8.66959996 18.35381958 8.15764047 13.38671875 8.31640625 C12.13955078 8.35830078 10.89238281 8.40019531 9.60742188 8.44335938 C7.66706055 8.50233398 7.66706055 8.50233398 5.6875 8.5625 C3.71813477 8.62727539 3.71813477 8.62727539 1.70898438 8.69335938 C-1.52724288 8.79927227 -4.76354458 8.90134885 -8 9 C-4.01644868 9.02493556 -0.03292833 9.04297028 3.95068359 9.05493164 C5.96323241 9.06236421 7.97575949 9.07507829 9.98828125 9.08789062 C16.42163371 9.10405483 22.6439839 9.02960975 29 8 C25.17929251 11.82070749 20.01542087 11.12815971 14.87109375 11.1328125 C14.19957779 11.13376923 13.52806183 11.13472595 12.8361969 11.13571167 C11.42343044 11.13638922 10.01066079 11.1345647 8.59790039 11.13037109 C6.44084672 11.12500832 4.28400045 11.13033477 2.12695312 11.13671875 C0.74999954 11.13605806 -0.62695391 11.13477708 -2.00390625 11.1328125 C-3.24986572 11.13168457 -4.4958252 11.13055664 -5.77954102 11.12939453 C-8.42289674 11.02318738 -10.48763312 10.72252695 -13 10 C-14.85306427 9.93276254 -16.70835529 9.91479619 -18.5625 9.9375 C-19.51253906 9.94652344 -20.46257813 9.95554687 -21.44140625 9.96484375 C-22.70791016 9.98224609 -22.70791016 9.98224609 -24 10 C-27 10 -27 10 -30 8 C-30 7.34 -30 6.68 -30 6 C-27.54316882 5.47097431 -25.08497874 4.95149191 -22.625 4.4375 C-21.92632812 4.28603516 -21.22765625 4.13457031 -20.5078125 3.97851562 C-15.2265625 2.88671875 -15.2265625 2.88671875 -13 4 C-7.29008444 4.54903034 -4.50192237 3.51369551 0 0 Z " fill="#3D67A5" transform="translate(58,98)"/>
<path d="M0 0 C2.64 0.66 5.28 1.32 8 2 C8.66 4.97 9.32 7.94 10 11 C8.71372289 12.17260611 7.42080217 13.3379283 6.125 14.5 C5.40570313 15.1496875 4.68640625 15.799375 3.9453125 16.46875 C2 18 2 18 0 18 C-0.268125 18.639375 -0.53625 19.27875 -0.8125 19.9375 C-2 22 -2 22 -5 23 C-5.84381994 14.73056456 -2.78872975 7.6490873 0 0 Z " fill="#F1D69A" transform="translate(28,78)"/>
<path d="M0 0 C0.66 0.33 1.32 0.66 2 1 C1.72285156 1.53109375 1.44570313 2.0621875 1.16015625 2.609375 C0.79792969 3.31578125 0.43570312 4.0221875 0.0625 4.75 C-0.29714844 5.44609375 -0.65679688 6.1421875 -1.02734375 6.859375 C-3.90356897 13.1893807 -3.18404177 19.99632324 -3.1875 26.8125 C-3.19974609 28.07126953 -3.21199219 29.33003906 -3.22460938 30.62695312 C-3.23448544 36.87191955 -2.95292959 42.08401246 -1 48 C-1.875 51.4375 -1.875 51.4375 -3 54 C-7.02442615 46.23860671 -7.34093602 39.64650744 -7.31567383 31.01806641 C-7.31252891 28.77065837 -7.3359425 26.5245879 -7.36132812 24.27734375 C-7.39492381 16.69756759 -7.15545033 10.03258517 -4 3 C-2 1 -2 1 0 0 Z " fill="#C6CACE" transform="translate(28,37)"/>
<path d="M0 0 C1.98 0 3.96 0 6 0 C6.04898437 0.95261719 6.09796875 1.90523438 6.1484375 2.88671875 C6.22320313 4.14097656 6.29796875 5.39523438 6.375 6.6875 C6.47941406 8.54955078 6.47941406 8.54955078 6.5859375 10.44921875 C6.82825844 13.91267015 6.82825844 13.91267015 8.0625 16.59375 C9.22855186 19.58661645 9.00685163 21.64313143 8.625 24.8125 C8.51414062 25.78832031 8.40328125 26.76414062 8.2890625 27.76953125 C8.14597656 28.87361328 8.14597656 28.87361328 8 30 C3.36892389 26.36129734 1.33483095 21.60350909 0 16 C-0.45184426 10.67285889 -0.23822164 5.33351785 0 0 Z " fill="#D9E6F1" transform="translate(15,68)"/>
<path d="M0 0 C0 3.8224955 -1.48924748 4.93348695 -4.0703125 7.578125 C-4.62460937 8.12984375 -5.17890625 8.6815625 -5.75 9.25 C-6.55824219 10.10078125 -6.55824219 10.10078125 -7.3828125 10.96875 C-8.984375 12.578125 -8.984375 12.578125 -12 15 C-14.05175781 14.67871094 -14.05175781 14.67871094 -16 14 C-16.721875 13.855625 -17.44375 13.71125 -18.1875 13.5625 C-18.785625 13.376875 -19.38375 13.19125 -20 13 C-21.35439668 10.29120665 -21.06501451 7.99066732 -21 5 C-20.07058594 4.80664062 -19.14117187 4.61328125 -18.18359375 4.4140625 C-9.02020085 2.48769715 -9.02020085 2.48769715 0 0 Z " fill="#004CBB" transform="translate(60,76)"/>
<path d="M0 0 C2.64 0 5.28 0 8 0 C7.4739075 3.78786597 6.61896089 6.17152224 4 9 C3.34 9 2.68 9 2 9 C1.731875 9.598125 1.46375 10.19625 1.1875 10.8125 C-0.00987475 13.01819033 -1.04478984 14.43583187 -3 16 C-3.99 16 -4.98 16 -6 16 C-6.33 16.99 -6.66 17.98 -7 19 C-9.60242414 20.64820195 -10.86248779 21 -14 21 C-12.09318548 16.41949991 -8.68562031 13.7143849 -5.09375 10.4140625 C-2.73423939 7.69358199 -1.94865072 5.44360212 -1 2 C-0.67 1.34 -0.34 0.68 0 0 Z " fill="#F8F8F8" transform="translate(90,18)"/>
<path d="M0 0 C0 2.97 0 5.94 0 9 C-1.03125 9.268125 -2.0625 9.53625 -3.125 9.8125 C-6.6485042 10.80998897 -9.76880827 12.2661898 -13 14 C-13 15.65 -13 17.3 -13 19 C-9.7 19.66 -6.4 20.32 -3 21 C-3 21.33 -3 21.66 -3 22 C-6.3 22 -9.6 22 -13 22 C-10.47524538 23.26237731 -8.68799534 23.09856404 -5.875 23.0625 C-4.96492188 23.05347656 -4.05484375 23.04445313 -3.1171875 23.03515625 C-2.41851562 23.02355469 -1.71984375 23.01195313 -1 23 C-3.37040308 25.37040308 -4.06302753 25.34465793 -7.3125 25.4375 C-11.08547385 25.36459229 -11.85366104 25.11280295 -15 22.6875 C-17 20 -17 20 -18 17 C-17.03542166 15.64082143 -16.03145371 14.30915279 -15 13 C-14.87625 12.319375 -14.7525 11.63875 -14.625 10.9375 C-13.68362117 8.01922561 -11.61789764 7.51256308 -9 6 C-7.41269947 4.45248144 -5.91273301 2.85441423 -4.4296875 1.20703125 C-3 0 -3 0 0 0 Z " fill="#3775C2" transform="translate(84,66)"/>
<path d="M0 0 C-1.26138195 1.34227818 -2.53444559 2.67358677 -3.8125 4 C-4.52019531 4.7425 -5.22789063 5.485 -5.95703125 6.25 C-8 8 -8 8 -11 8 C-11.020625 8.845625 -11.04125 9.69125 -11.0625 10.5625 C-12.35250013 15.29250047 -15.17425728 18.01362346 -19 21 C-19.66 21 -20.32 21 -21 21 C-21 22.65 -21 24.3 -21 26 C-21.66 26 -22.32 26 -23 26 C-23.86625 27.2065625 -23.86625 27.2065625 -24.75 28.4375 C-27 31 -27 31 -30.1875 31.875 C-31.115625 31.91625 -32.04375 31.9575 -33 32 C-34 31 -34 31 -34.0625 28.4375 C-34.041875 27.633125 -34.02125 26.82875 -34 26 C-33.34 25.67 -32.68 25.34 -32 25 C-32 25.99 -32 26.98 -32 28 C-27.1838033 26.86677725 -25.44194709 24.25340168 -22.73828125 20.41796875 C-20.03414824 16.65648935 -17.05893869 13.12551474 -14.10546875 9.55859375 C-12.87872015 8.06783246 -11.66554612 6.56529637 -10.48828125 5.03515625 C-7.80453029 1.57252489 -4.55785458 -2.27892729 0 0 Z " fill="#164FAA" transform="translate(81,67)"/>
<path d="M0 0 C0.66 0 1.32 0 2 0 C1.86722656 0.59167969 1.73445313 1.18335938 1.59765625 1.79296875 C1.42105469 2.58316406 1.24445313 3.37335937 1.0625 4.1875 C0.87816406 5.01121094 0.69382813 5.83492187 0.50390625 6.68359375 C0.137944 8.36588533 -0.19202424 10.05613334 -0.5 11.75 C-2.3099525 19.89478627 -8.15758293 26.40360908 -15 31 C-18.70425972 32.52977443 -22.48452121 33.0255892 -26.45703125 33.47265625 C-30.59053832 34.0878971 -33.33542837 34.99277232 -37 37 C-38.04067021 38.9977847 -38.04067021 38.9977847 -37.9375 41.1875 C-37.958125 42.445625 -37.97875 43.70375 -38 45 C-38.33 45 -38.66 45 -39 45 C-39.13536774 43.56510191 -39.23217143 42.12652893 -39.3125 40.6875 C-39.37050781 39.88699219 -39.42851563 39.08648437 -39.48828125 38.26171875 C-39 36 -39 36 -36.9921875 34.34375 C-34.0099406 33.00446419 -31.18292101 32.15263572 -28.02197266 31.36694336 C-19.85679087 29.31797896 -12.32252687 26.96287459 -7 20 C-5.82566441 16.97037729 -5.14599448 14.11901908 -4.58203125 10.921875 C-3.76118 6.80109153 -2.03655172 3.65174791 0 0 Z " fill="#0783D5" transform="translate(76,43)"/>
<path d="M0 0 C4.62 0 9.24 0 14 0 C12.15684353 3.68631294 10.93332947 5.18970942 8 7.875 C4.73327455 11.0352018 2.9147453 13.42627348 2 18 C1.34 17.67 0.68 17.34 0 17 C0 11.39 0 5.78 0 0 Z " fill="#1E43DC" transform="translate(25,65)"/>
<path d="M0 0 C2.27159689 1.29033905 4.54229625 2.58221402 6.8125 3.875 C7.45509766 4.23980469 8.09769531 4.60460938 8.75976562 4.98046875 C11.56768798 6.58083901 14.30964298 8.20642866 17 10 C17 10.66 17 11.32 17 12 C16.34 12 15.68 12 15 12 C15 15.96 15 19.92 15 24 C14.67 24 14.34 24 14 24 C13.97421875 23.25234375 13.9484375 22.5046875 13.921875 21.734375 C13.64810005 15.74011088 13.64810005 15.74011088 11.375 10.3125 C8.16186135 8.53681811 5.61270639 8.79550719 2 9 C1.67 8.67 1.34 8.34 1 8 C0.67 8.66 0.34 9.32 0 10 C-0.66 10 -1.32 10 -2 10 C-2.33 9.01 -2.66 8.02 -3 7 C-3.66 7.99 -4.32 8.98 -5 10 C-5.33 8.35 -5.66 6.7 -6 5 C-4.02 3.35 -2.04 1.7 0 0 Z " fill="#B17AE4" transform="translate(38,29)"/>
<path d="M0 0 C1.40233885 4.20701655 0.04813909 6.38376639 -1.625 10.36328125 C-3.79275859 14.52020468 -6.73739744 17.67598375 -10 21 C-10.680625 21.804375 -11.36125 22.60875 -12.0625 23.4375 C-14.60975912 25.49174123 -16.78853286 25.70804844 -20 26 C-20 26.66 -20 27.32 -20 28 C-24.95 29.485 -24.95 29.485 -30 31 C-28.54016358 28.08032717 -26.45772956 27.74831196 -23.5 26.4375 C-13.75526127 21.64044669 -7.97031721 15.52282474 -4.0703125 5.3828125 C-3.00143759 3.00320048 -1.95750443 1.68904668 0 0 Z " fill="#01A8E5" transform="translate(72,44)"/>
<path d="M0 0 C2.3125 1.75 2.3125 1.75 4 4 C4 5.32 4 6.64 4 8 C2.03533587 9.06775224 0.03144641 10.06553465 -2 11 C-2.66 10.67 -3.32 10.34 -4 10 C-3.42415568 7.61435923 -2.77772405 5.33317216 -2 3 C-4.53673288 4.3553326 -4.53673288 4.3553326 -7 6 C-7 6.66 -7 7.32 -7 8 C-8.53125 9.2890625 -8.53125 9.2890625 -10.5 10.625 C-11.1496875 11.07101563 -11.799375 11.51703125 -12.46875 11.9765625 C-13.22671875 12.48316406 -13.22671875 12.48316406 -14 13 C-15.32 12.01 -16.64 11.02 -18 10 C-16.8553125 9.38125 -16.8553125 9.38125 -15.6875 8.75 C-12.97153892 7.20024257 -12.97153892 7.20024257 -11.5 5 C-8.55566877 1.07422502 -4.89814119 -0.87915355 0 0 Z " fill="#B7B7B7" transform="translate(103,25)"/>
<path d="M0 0 C0.70125 0.28875 1.4025 0.5775 2.125 0.875 C1.72667969 1.33390625 1.32835937 1.7928125 0.91796875 2.265625 C-1.78642062 5.39771585 -4.45491771 8.51377459 -6.875 11.875 C-5.225 11.875 -3.575 11.875 -1.875 11.875 C-1.875 12.535 -1.875 13.195 -1.875 13.875 C-5.505 14.205 -9.135 14.535 -12.875 14.875 C-13.205 13.555 -13.535 12.235 -13.875 10.875 C-11.8125 8.5 -11.8125 8.5 -8.875 5.875 C-8.38128906 5.318125 -7.88757813 4.76125 -7.37890625 4.1875 C-3.51094855 -0.15264994 -3.51094855 -0.15264994 0 0 Z " fill="#D78B3D" transform="translate(38.875,89.125)"/>
<path d="M0 0 C0.33 0.99 0.66 1.98 1 3 C1.99 2.67 2.98 2.34 4 2 C2.93921668 8.89509158 -2.0388007 13.19253265 -7 17.58203125 C-9.04185262 19.02967285 -10.55365602 19.57953463 -13 20 C-12.67 19.01 -12.34 18.02 -12 17 C-13.65 17.33 -15.3 17.66 -17 18 C-14.89436111 16.28429424 -13.23334553 15.07368806 -10.625 14.25 C-6.7607885 12.40989929 -4.59306473 9.33266739 -2 6 C-2.99 5.67 -3.98 5.34 -5 5 C-3.35 3.35 -1.7 1.7 0 0 Z " fill="#1950A0" transform="translate(102,85)"/>
<path d="M0 0 C4.60291437 2.42931592 7.65601848 5.31203695 10 10 C10.25860135 14.05142119 10.30441554 15.54337669 8 19 C7.34 19 6.68 19 6 19 C5.84144531 18.40832031 5.68289062 17.81664063 5.51953125 17.20703125 C3.91836612 11.78430074 2.34510752 8.64049549 -2 5 C-1.34 3.35 -0.68 1.7 0 0 Z " fill="#DC581E" transform="translate(103,19)"/>
<path d="M0 0 C0 3 0 3 -1.17749023 4.53393555 C-1.71575439 5.062854 -2.25401855 5.59177246 -2.80859375 6.13671875 C-3.39060547 6.71357422 -3.97261719 7.29042969 -4.57226562 7.88476562 C-5.18779297 8.47966797 -5.80332031 9.07457031 -6.4375 9.6875 C-7.04916016 10.29400391 -7.66082031 10.90050781 -8.29101562 11.52539062 C-12.8461579 16 -12.8461579 16 -14 16 C-14 12.37 -14 8.74 -14 5 C-7.07 2.525 -7.07 2.525 0 0 Z " fill="#F2F5FA" transform="translate(67,36)"/>
<path d="M0 0 C2.80156538 1.40078269 3.23266219 3.51435843 4.46020508 6.27026367 C9.73652255 17.9709557 16.87848019 26.11068726 29.07421875 31.10546875 C34.28581153 32.69886628 39.59225346 33.42397612 45 34 C45 34.33 45 34.66 45 35 C35.49103029 36.87061699 28.43184627 34.35079413 20.3125 29.25 C18.85341041 28.1959246 17.41519557 27.11231239 16 26 C14.98292969 25.20722656 14.98292969 25.20722656 13.9453125 24.3984375 C7.13018488 18.37885007 3.53776911 10.22343139 0 2 C0 1.34 0 0.68 0 0 Z " fill="#000815" transform="translate(3,91)"/>
<path d="M0 0 C0.33 0.66 0.66 1.32 1 2 C-2.77637001 11.7842314 -10.03445822 18.39954888 -19.15234375 23.3203125 C-19.76207031 23.54460937 -20.37179688 23.76890625 -21 24 C-21.66 23.67 -22.32 23.34 -23 23 C-18.9168522 18.73447835 -15.19800297 14.88777943 -10 12 C-6.93439404 9.29505357 -5.06519594 6.50185399 -3 3 C-1.3125 1.1875 -1.3125 1.1875 0 0 Z " fill="#23CBF1" transform="translate(67,49)"/>
<path d="M0 0 C-1.46257149 1.73558484 -2.93392162 3.46185364 -4.421875 5.17578125 C-5.63543424 6.57858364 -6.82341867 8.00354151 -8 9.4375 C-10 11 -10 11 -13.125 11.375 C-16 11 -16 11 -18 9 C-12.61754967 3.04427094 -8.43542374 -0.4962014 0 0 Z " fill="#42A4E1" transform="translate(46,68)"/>
<path d="M0 0 C2.61190055 2.61190055 2.92601024 4.56730374 3.11352539 8.19824219 C3.10828857 8.97329102 3.10305176 9.74833984 3.09765625 10.546875 C3.09282227 11.81337891 3.09282227 11.81337891 3.08789062 13.10546875 C3.07951172 13.97816406 3.07113281 14.85085937 3.0625 15.75 C3.05798828 16.63816406 3.05347656 17.52632812 3.04882812 18.44140625 C3.037074 20.62767329 3.02064249 22.81380179 3 25 C2.67 25 2.34 25 2 25 C2 19.72 2 14.44 2 9 C1.34 9 0.68 9 0 9 C0.01047363 9.75095947 0.02094727 10.50191895 0.03173828 11.27563477 C0.07351891 14.70455529 0.09939622 18.13342207 0.125 21.5625 C0.14175781 22.74392578 0.15851563 23.92535156 0.17578125 25.14257812 C0.2094585 31.15396759 0.11038894 36.34183122 -2 42 C-2.79380036 39.61859892 -3.03472426 38.17311011 -2.53564453 35.68505859 C-1.99159764 32.95788096 -1.87069627 30.50400798 -1.8671875 27.7265625 C-1.86589844 26.7365625 -1.86460938 25.7465625 -1.86328125 24.7265625 C-1.86714844 23.70304687 -1.87101562 22.67953125 -1.875 21.625 C-1.87113281 20.60921875 -1.86726563 19.5934375 -1.86328125 18.546875 C-1.86883583 14.26985198 -1.89102569 10.11955897 -2.59765625 5.89453125 C-3 3 -3 3 -1.5625 1.0625 C-1.046875 0.711875 -0.53125 0.36125 0 0 Z " fill="#6E99CF" transform="translate(106,43)"/>
<path d="M0 0 C0.75 1.75 0.75 1.75 1 4 C-0.28817344 5.37701298 -1.62804426 6.70644173 -3 8 C-3.433125 9.2065625 -3.433125 9.2065625 -3.875 10.4375 C-5.47632856 14.08497062 -7.84783522 15.60161376 -11 18 C-11.92117061 14.39906035 -12.28640374 12.61372229 -10.6875 9.1875 C-9 7 -9 7 -7 6 C-7 5.34 -7 4.68 -7 4 C-5.824375 3.566875 -5.824375 3.566875 -4.625 3.125 C-1.90328368 2.15087746 -1.90328368 2.15087746 0 0 Z " fill="#6B6B69" transform="translate(101,41)"/>
<path d="M0 0 C-1.26244442 3.78733325 -2.44541788 4.06365586 -5.875 5.9375 C-9.52563985 7.93311216 -11.60232661 9.62049003 -14 13 C-16.1875 13.75 -16.1875 13.75 -18 14 C-18 9.97732335 -16.52716647 8.70450772 -13.921875 5.7890625 C-10.03944278 2.17492844 -5.30950749 -1.76983583 0 0 Z " fill="#D3D4DA" transform="translate(45,24)"/>
<path d="M0 0 C2.31 0.33 4.62 0.66 7 1 C7.33663062 4.70293685 7.47736015 6.39534381 5.125 9.375 C3 11 3 11 1 11 C1 11.66 1 12.32 1 13 C0.01 12.67 -0.98 12.34 -2 12 C-1 3.42857143 -1 3.42857143 0 0 Z " fill="#F8E2AE" transform="translate(29,79)"/>
<path d="M0 0 C0.66 0 1.32 0 2 0 C2.08774066 3.20815845 2.14063706 6.41600462 2.1875 9.625 C2.21263672 10.52863281 2.23777344 11.43226562 2.26367188 12.36328125 C2.32221524 17.71024149 1.94917714 21.34014531 -1 26 C-1.99 26 -2.98 26 -4 26 C-3.34 25.34 -2.68 24.68 -2 24 C-2 21.53870095 -2.0295018 19.08187556 -2.0703125 16.62109375 C-2.08890593 14.89323305 -2.1071211 13.16536824 -2.125 11.4375 C-2.14175781 10.56158203 -2.15851563 9.68566406 -2.17578125 8.78320312 C-2.18222656 7.94595703 -2.18867187 7.10871094 -2.1953125 6.24609375 C-2.20578613 5.47966553 -2.21625977 4.7132373 -2.22705078 3.92358398 C-2 2 -2 2 0 0 Z " fill="#598CCB" transform="translate(87,62)"/>
<path d="M0 0 C0 0.99 0 1.98 0 3 C-0.66 3.66 -1.32 4.32 -2 5 C1.29508099 6.6475405 4.94392273 6.14526809 8.5625 6.125 C9.3757373 6.12306641 10.18897461 6.12113281 11.02685547 6.11914062 C16.41803642 6.0802697 21.6606068 5.79102121 27 5 C22.26702942 9.73297058 13.56156218 8.22205562 7.3125 8.25 C6.17876953 8.270625 5.04503906 8.29125 3.87695312 8.3125 C-3.06267419 8.34449828 -9.61165452 7.96286022 -16 5 C-16.33 4.34 -16.66 3.68 -17 3 C-16.484375 3.165 -15.96875 3.33 -15.4375 3.5 C-10.38920217 4.53554827 -7.09051944 4.63448404 -2.5625 2 C-1.716875 1.34 -0.87125 0.68 0 0 Z " fill="#6589BA" transform="translate(58,98)"/>
<path d="M0 0 C-3.47027998 4.23689015 -5.86790508 5.59807051 -11.12695312 6.15039062 C-11.84818359 6.20388672 -12.56941406 6.25738281 -13.3125 6.3125 C-14.42334961 6.42174805 -14.42334961 6.42174805 -15.55664062 6.53320312 C-17.3692851 6.70862033 -19.18450541 6.85706447 -21 7 C-20.67 9.31 -20.34 11.62 -20 14 C-20.66 14 -21.32 14 -22 14 C-22.1953125 7.9453125 -22.1953125 7.9453125 -22 6 C-19.29668983 3.29668983 -16.28457204 2.80084314 -12.6875 1.875 C-12.02298828 1.69324219 -11.35847656 1.51148437 -10.67382812 1.32421875 C-7.0393086 0.36795545 -3.75884943 -0.21811505 0 0 Z " fill="#006BCA" transform="translate(60,74)"/>
<path d="M0 0 C-1.26138195 1.34227818 -2.53444559 2.67358677 -3.8125 4 C-4.52019531 4.7425 -5.22789063 5.485 -5.95703125 6.25 C-8 8 -8 8 -11 8 C-11.08121094 8.74636719 -11.16242188 9.49273437 -11.24609375 10.26171875 C-12.16790668 13.60985795 -13.39235925 14.65095749 -16.0625 16.8125 C-16.79597656 17.41707031 -17.52945313 18.02164063 -18.28515625 18.64453125 C-18.85105469 19.09183594 -19.41695312 19.53914063 -20 20 C-20.33 19.34 -20.66 18.68 -21 18 C-18.77589959 15.27680953 -16.54972998 12.55548152 -14.31640625 9.83984375 C-13.01384482 8.24294298 -11.72116073 6.637438 -10.46484375 5.00390625 C-7.78472994 1.5481968 -4.54302409 -2.27151205 0 0 Z " fill="#003EAA" transform="translate(81,67)"/>
<path d="M0 0 C0.66 0 1.32 0 2 0 C1.86722656 0.59167969 1.73445313 1.18335938 1.59765625 1.79296875 C1.42105469 2.58316406 1.24445313 3.37335937 1.0625 4.1875 C0.78599609 5.42306641 0.78599609 5.42306641 0.50390625 6.68359375 C0.137944 8.36588533 -0.19202424 10.05613334 -0.5 11.75 C-1.86024134 17.87108603 -4.10634849 20.27656951 -9 24 C-8.69835937 23.45859375 -8.39671875 22.9171875 -8.0859375 22.359375 C-6.85306504 19.68076002 -6.25886292 17.12848339 -5.625 14.25 C-4.36920696 8.99498913 -2.62576479 4.7082679 0 0 Z " fill="#0075DE" transform="translate(76,43)"/>
<path d="M0 0 C0.33 0.99 0.66 1.98 1 3 C-1.81865057 6.13183396 -4.10677962 7.50260755 -8 9 C-8.515625 9.556875 -9.03125 10.11375 -9.5625 10.6875 C-10.036875 11.120625 -10.51125 11.55375 -11 12 C-13.125 11.875 -13.125 11.875 -15 11 C-15.33 10.01 -15.66 9.02 -16 8 C-12.25 5 -12.25 5 -10 5 C-9.67 4.34 -9.34 3.68 -9 3 C-8.443125 3.20625 -7.88625 3.4125 -7.3125 3.625 C-4.340462 4.10695211 -2.68020059 3.26565028 0 2 C0 1.34 0 0.68 0 0 Z " fill="#A9A6A2" transform="translate(107,31)"/>
<path d="M0 0 C2 2 2 2 2 6 C1.01 6 0.02 6 -1 6 C-1 6.66 -1 7.32 -1 8 C-1.66 8 -2.32 8 -3 8 C-3.33 8.99 -3.66 9.98 -4 11 C-7.5625 12.1875 -7.5625 12.1875 -11 13 C-9.46356148 9.31930113 -7.21849055 7.01224796 -4.375 4.25 C-3.55773437 3.45078125 -2.74046875 2.6515625 -1.8984375 1.828125 C-0.95871094 0.92320313 -0.95871094 0.92320313 0 0 Z " fill="#002387" transform="translate(88,52)"/>
<path d="M0 0 C0.66 0.33 1.32 0.66 2 1 C-0.17175431 3.92351542 -2.3658603 6.40299171 -5.1875 8.6875 C-8.01647233 10.69390251 -8.01647233 10.69390251 -9 13 C-9.99 13 -10.98 13 -12 13 C-12.268125 13.969375 -12.53625 14.93875 -12.8125 15.9375 C-13.204375 16.948125 -13.59625 17.95875 -14 19 C-14.99 19.33 -15.98 19.66 -17 20 C-17.33 19.01 -17.66 18.02 -18 17 C-17.34 17 -16.68 17 -16 17 C-15.79375 16.46761719 -15.5875 15.93523438 -15.375 15.38671875 C-13.42493868 12.00181118 -10.78000452 9.53021668 -8 6.8125 C-7.4534375 6.26658203 -6.906875 5.72066406 -6.34375 5.15820312 C-2.28148496 1.14074248 -2.28148496 1.14074248 0 0 Z " fill="#726881" transform="translate(87,18)"/>
<path d="M0 0 C0.33 0.66 0.66 1.32 1 2 C-4.45660364 10.14054283 -11.63905904 18.45230296 -21 22 C-23.375 21.1875 -23.375 21.1875 -25 20 C-23.85724609 19.48953125 -23.85724609 19.48953125 -22.69140625 18.96875 C-13.19464327 14.51084378 -5.30982251 9.23447393 0 0 Z " fill="#00040C" transform="translate(119,102)"/>
<path d="M0 0 C1.32 1.32 2.64 2.64 4 4 C-0.66019417 5.94174757 -0.66019417 5.94174757 -3.1875 6.375 C-5.18182305 6.82370402 -5.18182305 6.82370402 -5.89453125 8.8359375 C-7.12929811 11.25311361 -8.43060911 12.51381612 -10.5 14.25 C-11.1084375 14.77078125 -11.716875 15.2915625 -12.34375 15.828125 C-14 17 -14 17 -16 17 C-16.33 17.99 -16.66 18.98 -17 20 C-17.99 19.67 -18.98 19.34 -20 19 C-19 18 -18 17 -17 16 C-16.54625 15.505 -16.0925 15.01 -15.625 14.5 C-14 13 -14 13 -11.5 11.5625 C-8.92751794 9.95469871 -7.75312049 8.42097591 -6 6 C-5.34 6 -4.68 6 -4 6 C-3.566875 5.071875 -3.566875 5.071875 -3.125 4.125 C-2 2 -2 2 0 0 Z " fill="#D6D5D5" transform="translate(98,21)"/>
<path d="M0 0 C0.33 0 0.66 0 1 0 C1.04952706 4.34161825 1.08577954 8.68308575 1.10986328 13.02490234 C1.11990591 14.50116847 1.13354265 15.97741479 1.15087891 17.45361328 C1.17520421 19.57850034 1.1865004 21.70312385 1.1953125 23.828125 C1.20578613 25.1059082 1.21625977 26.38369141 1.22705078 27.70019531 C1 31 1 31 -1 35 C-0.67 29.72 -0.34 24.44 0 19 C-1.65 18.67 -3.3 18.34 -5 18 C-5 21.63 -5 25.26 -5 29 C-5.33 29 -5.66 29 -6 29 C-6 25.04 -6 21.08 -6 17 C-4.35 16.67 -2.7 16.34 -1 16 C-0.67 10.72 -0.34 5.44 0 0 Z " fill="#2362B4" transform="translate(114,51)"/>
<path d="M0 0 C0.75 1.6875 0.75 1.6875 1 4 C-0.9610312 7.51351423 -2.24711609 8.77413483 -6.125 9.9375 C-10.88421433 10.01426152 -15.49296187 9.61495333 -20 8 C-22 5 -22 5 -21.625 2.8125 C-21.41875 2.214375 -21.2125 1.61625 -21 1 C-20.54625 1.804375 -20.0925 2.60875 -19.625 3.4375 C-18.25274335 6.08856572 -18.25274335 6.08856572 -16 7 C-11.71180044 7.43808718 -8.05577552 7.44926618 -4.0625 5.75 C-1.93922143 3.94843031 -0.9804588 2.58484592 0 0 Z " fill="#1353AA" transform="translate(88,83)"/>
<path d="M0 0 C0 3 0 3 -1.13671875 4.5 C-4.20458398 7.46740616 -7.09402643 10.15551248 -11 12 C-11.66 11.67 -12.32 11.34 -13 11 C-12.67 10.34 -12.34 9.68 -12 9 C-14.97 9.66 -17.94 10.32 -21 11 C-20.0625 9.0625 -20.0625 9.0625 -18 7 C-15.0141919 6.33825175 -12.05138131 6.12794052 -9 6 C-9 6.66 -9 7.32 -9 8 C-7.68712379 6.85459775 -6.37470979 5.70866567 -5.0625 4.5625 C-4.33160156 3.92441406 -3.60070312 3.28632812 -2.84765625 2.62890625 C-1.87860647 1.77458541 -0.91348825 0.91348825 0 0 Z " fill="#7ADBF5" transform="translate(61,55)"/>
<path d="M0 0 C5.84450583 1.53802785 11.12711522 4.4560838 16 8 C16 8.66 16 9.32 16 10 C15.34 10 14.68 10 14 10 C14 13.96 14 17.92 14 22 C13.67 22 13.34 22 13 22 C12.97421875 21.25234375 12.9484375 20.5046875 12.921875 19.734375 C12.72843741 13.89007995 12.72843741 13.89007995 10.4375 8.6875 C9.633125 8.130625 8.82875 7.57375 8 7 C6.58040725 5.94141267 5.16395929 4.87860028 3.75 3.8125 C3.04359375 3.30332031 2.3371875 2.79414062 1.609375 2.26953125 C1.07828125 1.85058594 0.5471875 1.43164062 0 1 C0 0.67 0 0.34 0 0 Z " fill="#BC8BE4" transform="translate(39,31)"/>
<path d="M0 0 C2.475 0.99 2.475 0.99 5 2 C4.58682778 6.82034262 2.61980085 8.90992611 -1 12 C-1.66 12 -2.32 12 -3 12 C-2.49202991 7.6822542 -1.80317221 3.96697886 0 0 Z " fill="#2DBEE9" transform="translate(68,36)"/>
<path d="M0 0 C0.77085938 -0.01417969 1.54171875 -0.02835938 2.3359375 -0.04296875 C4.84334888 0.20948393 6.45761902 0.93556533 8.625 2.1875 C8.295 3.5075 7.965 4.8275 7.625 6.1875 C6.635 6.1875 5.645 6.1875 4.625 6.1875 C4.295 4.8675 3.965 3.5475 3.625 2.1875 C0.985 2.1875 -1.655 2.1875 -4.375 2.1875 C-4.7771875 3.3940625 -4.7771875 3.3940625 -5.1875 4.625 C-5.7753125 5.8934375 -5.7753125 5.8934375 -6.375 7.1875 C-7.365 7.5175 -8.355 7.8475 -9.375 8.1875 C-9.065625 7.589375 -8.75625 6.99125 -8.4375 6.375 C-7.27290296 4.09793228 -7.27290296 4.09793228 -6.375 1.1875 C-4.04904054 0.02452027 -2.58776769 0.02149309 0 0 Z " fill="#EFC49C" transform="translate(94.375,15.8125)"/>
<path d="M0 0 C1.9375 0.6875 1.9375 0.6875 2.9375 2.6875 C1.9475 3.3475 0.9575 4.0075 -0.0625 4.6875 C-0.3925 5.6775 -0.7225 6.6675 -1.0625 7.6875 C0.2575 8.0175 1.5775 8.3475 2.9375 8.6875 C2.2775 10.0075 1.6175 11.3275 0.9375 12.6875 C-1.3725 10.0475 -3.6825 7.4075 -6.0625 4.6875 C-3.4568662 -0.52376761 -3.4568662 -0.52376761 0 0 Z " fill="#B0B8BD" transform="translate(86.0625,37.3125)"/>
<path d="M0 0 C3.25696479 0.41755959 4.63443291 0.63443291 7 3 C7 4.32 7 5.64 7 7 C5.03533587 8.06775224 3.03144641 9.06553465 1 10 C0.34 9.67 -0.32 9.34 -1 9 C-0.42415568 6.61435923 0.22227595 4.33317216 1 2 C0.34 1.67 -0.32 1.34 -1 1 C-0.67 0.67 -0.34 0.34 0 0 Z " fill="#AEA9A7" transform="translate(100,26)"/>
<path d="M0 0 C2.11441933 3.45160151 2.24118936 6.18032156 2.1875 10.1875 C2.18105469 11.25355469 2.17460937 12.31960937 2.16796875 13.41796875 C2 16 2 16 1 17 C0.76518307 19.18292774 0.58636677 21.37203174 0.4375 23.5625 C0.35371094 24.76003906 0.26992188 25.95757812 0.18359375 27.19140625 C0.12300781 28.11824219 0.06242187 29.04507813 0 30 C-0.33 30 -0.66 30 -1 30 C-1.0246985 26.04900072 -1.04285923 22.09803126 -1.05493164 18.14697266 C-1.06244036 16.14093449 -1.0751447 14.13491798 -1.08789062 12.12890625 C-1.09111328 10.87207031 -1.09433594 9.61523438 -1.09765625 8.3203125 C-1.10289307 7.15773926 -1.10812988 5.99516602 -1.11352539 4.79736328 C-1 2 -1 2 0 0 Z " fill="#476ACF" transform="translate(25,48)"/>
<path d="M0 0 C2.0625 0.4375 2.0625 0.4375 4 1 C3.5359375 1.39832031 3.071875 1.79664063 2.59375 2.20703125 C0.70539028 4.33143593 0.22164837 5.95124992 -0.5 8.6875 C-0.75007813 9.56921875 -1.00015625 10.4509375 -1.2578125 11.359375 C-1.50273438 12.23078125 -1.74765625 13.1021875 -2 14 C-4.15114656 21.36829511 -4.15114656 21.36829511 -7.6875 24 C-8.450625 24.33 -9.21375 24.66 -10 25 C-9.70996094 24.43539062 -9.41992188 23.87078125 -9.12109375 23.2890625 C-5.91657029 16.74602853 -3.57009657 9.94096034 -1.61328125 2.93359375 C-1 1 -1 1 0 0 Z " fill="#0389E2" transform="translate(74,42)"/>
<path d="M0 0 C0 3 0 3 -1.3125 4.60546875 C-1.869375 5.12753906 -2.42625 5.64960937 -3 6.1875 C-3.556875 6.71730469 -4.11375 7.24710937 -4.6875 7.79296875 C-5.120625 8.19128906 -5.55375 8.58960937 -6 9 C-7.41791408 8.54554036 -8.83428046 8.08625056 -10.25 7.625 C-11.03890625 7.36976562 -11.8278125 7.11453125 -12.640625 6.8515625 C-14.86627958 6.04826333 -16.90931672 5.10288338 -19 4 C-16.36 4 -13.72 4 -11 4 C-11.66 3.34 -12.32 2.68 -13 2 C-8.13924051 2.94514768 -8.13924051 2.94514768 -5.9375 3.8125 C-4.9784375 3.9053125 -4.9784375 3.9053125 -4 4 C-1.72855926 2.14567913 -1.72855926 2.14567913 0 0 Z " fill="#6389BF" transform="translate(99,91)"/>
<path d="M0 0 C5.81812771 -0.25296207 11.39552793 0.34017463 17 2 C17.66 2.66 18.32 3.32 19 4 C16.39555652 4.05394705 13.79223002 4.09364469 11.1875 4.125 C10.44951172 4.14175781 9.71152344 4.15851563 8.95117188 4.17578125 C5.08753574 4.21074628 3.29096332 4.19397555 0 2 C0 1.34 0 0.68 0 0 Z " fill="#3066AF" transform="translate(71,92)"/>
<path d="M0 0 C0.99 0 1.98 0 3 0 C1.84826645 2.46800047 0.95216435 4.04783565 -1 6 C-2.32 6 -3.64 6 -5 6 C-4.67 7.32 -4.34 8.64 -4 10 C-4.61875 10.103125 -5.2375 10.20625 -5.875 10.3125 C-8.36526484 10.87525373 -8.36526484 10.87525373 -10 14 C-10.33 13.34 -10.66 12.68 -11 12 C-10.319375 11.278125 -9.63875 10.55625 -8.9375 9.8125 C-6.68262931 7.1794348 -6.68262931 7.1794348 -7.25 4.1875 C-7.4975 3.465625 -7.745 2.74375 -8 2 C-6.8553125 2.3403125 -6.8553125 2.3403125 -5.6875 2.6875 C-4.800625 2.790625 -3.91375 2.89375 -3 3 C-1.35405861 1.60411246 -1.35405861 1.60411246 0 0 Z " fill="#887A63" transform="translate(99,39)"/>
<path d="M0 0 C-0.1875 2.375 -0.1875 2.375 -1 5 C-4.34157247 6.94925061 -7.18115446 7.21821974 -11 7 C-11 6.34 -11 5.68 -11 5 C-5.11138162 -0.75167377 -5.11138162 -0.75167377 0 0 Z " fill="#BE4D16" transform="translate(48,92)"/>
<path d="M0 0 C0.33 0 0.66 0 1 0 C1 7.59 1 15.18 1 23 C0.67 23 0.34 23 0 23 C-0.2475 22.113125 -0.495 21.22625 -0.75 20.3125 C-2.03934768 16.89572865 -3.59980129 14.7202252 -6 12 C-4.02 11.67 -2.04 11.34 0 11 C0 7.37 0 3.74 0 0 Z " fill="#1F65BB" transform="translate(104,53)"/>
<path d="M0 0 C2.61190055 2.61190055 2.92601024 4.56730374 3.11352539 8.19824219 C3.10828857 8.97329102 3.10305176 9.74833984 3.09765625 10.546875 C3.09282227 11.81337891 3.09282227 11.81337891 3.08789062 13.10546875 C3.07951172 13.97816406 3.07113281 14.85085937 3.0625 15.75 C3.05798828 16.63816406 3.05347656 17.52632812 3.04882812 18.44140625 C3.037074 20.62767329 3.02064249 22.81380179 3 25 C2.67 25 2.34 25 2 25 C2 19.72 2 14.44 2 9 C1.01 8.67 0.02 8.34 -1 8 C-1.625 5.125 -1.625 5.125 -2 2 C-1.34 1.34 -0.68 0.68 0 0 Z " fill="#508ACF" transform="translate(106,43)"/>
<path d="M0 0 C4.62 0 9.24 0 14 0 C13.67 0.99 13.34 1.98 13 3 C10.03 2.67 7.06 2.34 4 2 C4 2.66 4 3.32 4 4 C2.68 4.33 1.36 4.66 0 5 C0 3.35 0 1.7 0 0 Z " fill="#2E1EDD" transform="translate(25,65)"/>
<path d="M0 0 C1.9375 0.125 1.9375 0.125 4 1 C5.25 3.5625 5.25 3.5625 6 6 C4.35 7.65 2.7 9.3 1 11 C1 9.35 1 7.7 1 6 C0.01 5.67 -0.98 5.34 -2 5 C-1.125 1.125 -1.125 1.125 0 0 Z " fill="#A4A29B" transform="translate(87,40)"/>
<path d="M0 0 C1 3 1 3 0.06640625 5.41796875 C-3.49907521 11.98401124 -7.40494234 17.04397177 -13 22 C-13.66 21.67 -14.32 21.34 -15 21 C-14.40832031 20.47792969 -13.81664062 19.95585938 -13.20703125 19.41796875 C-7.86782239 14.44457844 -4.5877423 9.96935576 -1.875 3.1875 C-1 1 -1 1 0 0 Z " fill="#01B7EC" transform="translate(70,46)"/>
<path d="M0 0 C5.75 4.625 5.75 4.625 8 8 C7.625 10.1875 7.625 10.1875 7 12 C5.29159719 10.36587557 4.06546953 9.13093906 3 7 C1.68 7.33 0.36 7.66 -1 8 C-0.67 5.36 -0.34 2.72 0 0 Z " fill="#0F45AA" transform="translate(80,42)"/>
<path d="M0 0 C-0.0625 1.75 -0.0625 1.75 -1 4 C-3.70049044 6.00840495 -6.55126733 8 -10 8 C-9.4376049 4.73810844 -8.5859495 3.08865152 -6 1 C-3 0 -3 0 0 0 Z " fill="#2DADE7" transform="translate(42,70)"/>
<path d="M0 0 C0.33 0.99 0.66 1.98 1 3 C2.64991582 3.70710678 4.3207762 4.36562656 6 5 C8.02318078 6.29788956 10.02866014 7.62464661 12 9 C11.01 9.495 11.01 9.495 10 10 C9.01 9.34 8.02 8.68 7 8 C4.9507906 7.54860541 4.9507906 7.54860541 2.8125 7.375 C1.554375 7.25125 0.29625 7.1275 -1 7 C-1 5.68 -1 4.36 -1 3 C-1.66 2.67 -2.32 2.34 -3 2 C-2.01 1.34 -1.02 0.68 0 0 Z " fill="#2F74C3" transform="translate(90,59)"/>
<path d="M0 0 C-1.74807129 5.46737191 -3.65794081 10.75824848 -6 16 C-6.33 16 -6.66 16 -7 16 C-6.5587029 10.77411334 -6.07351958 5.8788696 -4 1 C-2 0 -2 0 0 0 Z " fill="#0B72CF" transform="translate(9,30)"/>
<path d="M0 0 C0.99 0.33 1.98 0.66 3 1 C2.071875 1.721875 1.14375 2.44375 0.1875 3.1875 C-2.60066772 5.50331931 -4.29977545 7.76957336 -6 11 C-6.99 12.485 -6.99 12.485 -8 14 C-8.66 14 -9.32 14 -10 14 C-10.33 13.01 -10.66 12.02 -11 11 C-7.33333333 7.33333333 -3.66666667 3.66666667 0 0 Z " fill="#E8AF5A" transform="translate(36,89)"/>
<path d="M0 0 C0.33 0.99 0.66 1.98 1 3 C1.99 2.67 2.98 2.34 4 2 C3.38545304 5.99455527 1.29353263 8.74466336 -1 12 C-1 11.01 -1 10.02 -1 9 C-1.33 8.01 -1.66 7.02 -2 6 C-2.99 5.67 -3.98 5.34 -5 5 C-3.35 3.35 -1.7 1.7 0 0 Z " fill="#3568AE" transform="translate(102,85)"/>
<path d="M0 0 C5.13503344 0.64187918 9.9943454 1.68272247 15 3 C15 3.33 15 3.66 15 4 C13.02 4 11.04 4 9 4 C8.67 4.66 8.34 5.32 8 6 C5.36 4.68 2.72 3.36 0 2 C0 1.34 0 0.68 0 0 Z " fill="#3965A3" transform="translate(37,102)"/>
<path d="M0 0 C4 2 4 2 5 4 C5.66 3.34 6.32 2.68 7 2 C7.25 7.625 7.25 7.625 5 11 C4.34 11 3.68 11 3 11 C2.01 7.37 1.02 3.74 0 0 Z " fill="#992514" transform="translate(106,27)"/>
<path d="M0 0 C1 2 1 2 0.3125 4.4375 C-1.14195524 7.27715071 -2.1879596 8.51127273 -5 10 C-7.25 9.6875 -7.25 9.6875 -9 9 C-6 6 -3 3 0 0 Z " fill="#ADE5F9" transform="translate(56,49)"/>
<path d="M0 0 C1.75 2 1.75 2 3 4 C0.47524538 5.26237731 -1.31200466 5.09856404 -4.125 5.0625 C-5.03507812 5.05347656 -5.94515625 5.04445313 -6.8828125 5.03515625 C-7.58148437 5.02355469 -8.28015625 5.01195313 -9 5 C-9 4.34 -9 3.68 -9 3 C-8.01 3 -7.02 3 -6 3 C-6 2.34 -6 1.68 -6 1 C-4 0 -4 0 0 0 Z " fill="#194692" transform="translate(28,104)"/>
<path d="M0 0 C2 2 2 2 2.1953125 4.3828125 C2.17210937 5.28773437 2.14890625 6.19265625 2.125 7.125 C2.10695313 8.03507812 2.08890625 8.94515625 2.0703125 9.8828125 C2.03550781 10.93082031 2.03550781 10.93082031 2 12 C1.01 12 0.02 12 -1 12 C-1.02687279 10.18757948 -1.04633715 8.37504767 -1.0625 6.5625 C-1.07410156 5.55316406 -1.08570312 4.54382812 -1.09765625 3.50390625 C-1 1 -1 1 0 0 Z " fill="#BBC3CA" transform="translate(22,50)"/>
<path d="M0 0 C1.32 0 2.64 0 4 0 C3.52797514 4.24822374 1.03344482 6.19989709 -2 9 C-2.25 3.375 -2.25 3.375 0 0 Z " fill="#FAEDCE" transform="translate(32,80)"/>
<path d="M0 0 C2.97 0.495 2.97 0.495 6 1 C4.02 5.455 4.02 5.455 2 10 C1.34 9.67 0.68 9.34 0 9 C0 6.03 0 3.06 0 0 Z " fill="#1474D5" transform="translate(25,73)"/>
<path d="M0 0 C1.28179927 2.56359854 0.87670752 3.71958533 0.3125 6.5 C0.16425781 7.2940625 0.01601563 8.088125 -0.13671875 8.90625 C-1 11 -1 11 -3.08203125 12.28125 C-3.71496094 12.5184375 -4.34789062 12.755625 -5 13 C-4.54996653 7.37458159 -3.31558515 4.38512875 0 0 Z " fill="#7EDDF7" transform="translate(62,43)"/>
<path d="M0 0 C-2.46328998 2.46328998 -3.47497831 2.3254065 -6.875 2.5625 C-10.0355005 2.79364108 -12.94588748 3.14058694 -16 4 C-16 3.34 -16 2.68 -16 2 C-10.23826317 -1.06475363 -6.37259801 -1.19937786 0 0 Z " fill="#B27C6D" transform="translate(54,98)"/>
<path d="M0 0 C0.66 0.99 1.32 1.98 2 3 C1.3203125 5.26171875 1.3203125 5.26171875 0.125 7.6875 C-0.45894531 8.89986328 -0.45894531 8.89986328 -1.0546875 10.13671875 C-1.52261719 11.05904297 -1.52261719 11.05904297 -2 12 C-2.66 11.01 -3.32 10.02 -4 9 C-3.11728545 5.4691418 -2.02559537 3.03839305 0 0 Z " fill="#6369D5" transform="translate(29,39)"/>
<path d="M0 0 C-2 2 -2 2 -4.5625 3.5 C-7.10406871 4.76866837 -7.10406871 4.76866837 -8 7 C-9.32 6.34 -10.64 5.68 -12 5 C-8.36219404 0.99841344 -5.42711258 -0.30150625 0 0 Z " fill="#A556D8" transform="translate(51,25)"/>
<path d="M0 0 C0.0825 0.5775 0.165 1.155 0.25 1.75 C1.31023719 4.93071157 2.19981213 6.08767658 5 8 C8.35940814 8.33752295 11.63566555 8.23113748 15 8 C12.62959692 10.37040308 11.93697247 10.34465793 8.6875 10.4375 C4.91452615 10.36459229 4.14633896 10.11280295 1 7.6875 C-1 5 -1 5 -2 2 C-1.34 1.34 -0.68 0.68 0 0 Z " fill="#779BCD" transform="translate(68,81)"/>
<path d="M0 0 C0.804375 0.226875 1.60875 0.45375 2.4375 0.6875 C3.4275 0.6875 4.4175 0.6875 5.4375 0.6875 C3.4575 2.0075 1.4775 3.3275 -0.5625 4.6875 C-1.2225 4.3575 -1.8825 4.0275 -2.5625 3.6875 C-2.2325 3.0275 -1.9025 2.3675 -1.5625 1.6875 C-3.2125 2.0175 -4.8625 2.3475 -6.5625 2.6875 C-3.23405172 -0.39439655 -3.23405172 -0.39439655 0 0 Z " fill="#406DAD" transform="translate(91.5625,100.3125)"/>
<path d="M0 0 C0.66 0 1.32 0 2 0 C2.33 0.99 2.66 1.98 3 3 C0.36 5.31 -2.28 7.62 -5 10 C-5 5.63755776 -3.03368793 3.03368793 0 0 Z " fill="#F1C674" transform="translate(35,86)"/>
<path d="M0 0 C2 2 2 2 2 6 C1.01 6 0.02 6 -1 6 C-1 6.66 -1 7.32 -1 8 C-2.65 8.33 -4.3 8.66 -6 9 C-5.071875 7.88625 -5.071875 7.88625 -4.125 6.75 C-2.39562719 4.51198812 -1.13893339 2.56260013 0 0 Z " fill="#0A2176" transform="translate(88,52)"/>
<path d="M0 0 C0.33 0.99 0.66 1.98 1 3 C0.38125 3.598125 -0.2375 4.19625 -0.875 4.8125 C-3.13676954 7.00811144 -3.13676954 7.00811144 -5 10 C-5.66 8.02 -6.32 6.04 -7 4 C-6.01 4 -5.02 4 -4 4 C-1.81222534 2.0624994 -1.81222534 2.0624994 0 0 Z " fill="#746453" transform="translate(108,33)"/>
<path d="M0 0 C2.1519437 3.22791555 2.20086443 4.28400809 2 8 C1.34 8 0.68 8 0 8 C-0.33 7.01 -0.66 6.02 -1 5 C-1.66 5.99 -2.32 6.98 -3 8 C-3.33 6.35 -3.66 4.7 -4 3 C-2.68 2.01 -1.36 1.02 0 0 Z " fill="#9771DD" transform="translate(36,31)"/>
<path d="M0 0 C1.98 0.99 3.96 1.98 6 3 C4.60147088 5.79705825 2.86348142 5.90914993 0 7 C-0.99 7.66 -1.98 8.32 -3 9 C-2.01 6.03 -1.02 3.06 0 0 Z " fill="#6AB6DE" transform="translate(73,37)"/>
<path d="M0 0 C0.33 0.99 0.66 1.98 1 3 C1.99 3 2.98 3 4 3 C4 3.99 4 4.98 4 6 C2.02 6.66 0.04 7.32 -2 8 C-1.47731534 5.23723823 -0.89130413 2.6739124 0 0 Z " fill="#407DD5" transform="translate(22,98)"/>
<path d="M0 0 C-1.32 1.32 -2.64 2.64 -4 4 C-4 3.34 -4 2.68 -4 2 C-5.6396875 2.7425 -5.6396875 2.7425 -7.3125 3.5 C-11 5 -11 5 -14 5 C-10.39689122 0.59620038 -5.480803 -0.32240018 0 0 Z " fill="#43BAEB" transform="translate(46,68)"/>
<path d="M0 0 C0.66 0.33 1.32 0.66 2 1 C-1.42388092 4.82669043 -4.00724943 6.72278474 -9 8 C-6.37347975 4.40069448 -4.06036357 1.92333011 0 0 Z " fill="#23C4EA" transform="translate(53,65)"/>
<path d="M0 0 C2.64 0 5.28 0 8 0 C7.67 0.99 7.34 1.98 7 3 C5.68 2.34 4.36 1.68 3 1 C2.67 1.99 2.34 2.98 2 4 C-0.0625 4.6875 -0.0625 4.6875 -2 5 C-1.34 3.35 -0.68 1.7 0 0 Z " fill="#E7E1DD" transform="translate(90,18)"/>
<path d="M0 0 C0.99 0.33 1.98 0.66 3 1 C2.34 2.65 1.68 4.3 1 6 C-0.32 5.67 -1.64 5.34 -3 5 C-2.01 3.35 -1.02 1.7 0 0 Z " fill="#665A45" transform="translate(92,48)"/>
<path d="M0 0 C0 0.66 0 1.32 0 2 C-1.32 2 -2.64 2 -4 2 C-4.4021875 3.2065625 -4.4021875 3.2065625 -4.8125 4.4375 C-5.4003125 5.7059375 -5.4003125 5.7059375 -6 7 C-6.99 7.33 -7.98 7.66 -9 8 C-8.690625 7.401875 -8.38125 6.80375 -8.0625 6.1875 C-6.89790296 3.91043228 -6.89790296 3.91043228 -6 1 C-4 0 -4 0 0 0 Z " fill="#C1A395" transform="translate(94,16)"/>
<path d="M0 0 C0.66 0.33 1.32 0.66 2 1 C-0.38957269 4.24299151 -2.2047869 6.50902342 -6 8 C-6 5 -6 5 -4.6875 3.61328125 C-3.125 2.40885417 -1.5625 1.20442708 0 0 Z " fill="#828181" transform="translate(87,18)"/>
<path d="M0 0 C1.27875 -0.061875 2.5575 -0.12375 3.875 -0.1875 C4.95394531 -0.23970703 4.95394531 -0.23970703 6.0546875 -0.29296875 C6.69664063 -0.19628906 7.33859375 -0.09960938 8 0 C8.66 0.99 9.32 1.98 10 3 C3.47692308 3.36923077 3.47692308 3.36923077 1.0625 1.5 C0.5365625 0.7575 0.5365625 0.7575 0 0 Z " fill="#235199" transform="translate(42,100)"/>
<path d="M0 0 C0.66 1.32 1.32 2.64 2 4 C0.02 6.31 -1.96 8.62 -4 11 C-4.33 10.01 -4.66 9.02 -5 8 C-4.01 7.67 -3.02 7.34 -2 7 C-0.77030122 3.48809191 -0.77030122 3.48809191 0 0 Z " fill="#727579" transform="translate(102,41)"/>
<path d="M0 0 C2.0625 0.4375 2.0625 0.4375 4 1 C3.34 2.32 2.68 3.64 2 5 C0.68 5 -0.64 5 -2 5 C-1.125 1.125 -1.125 1.125 0 0 Z " fill="#949DA0" transform="translate(87,40)"/>
<path d="M0 0 C0.66 0.33 1.32 0.66 2 1 C-2.29290618 5.75286041 -2.29290618 5.75286041 -6 6 C-6.66 5.34 -7.32 4.68 -8 4 C-6.71349294 3.30289269 -5.42059335 2.61757124 -4.125 1.9375 C-3.40570313 1.55464844 -2.68640625 1.17179687 -1.9453125 0.77734375 C-1.30335937 0.52082031 -0.66140625 0.26429687 0 0 Z " fill="#001029" transform="translate(102,118)"/>
<path d="M0 0 C0.99 0 1.98 0 3 0 C3 0.66 3 1.32 3 2 C3.61875 1.79375 4.2375 1.5875 4.875 1.375 C5.57625 1.25125 6.2775 1.1275 7 1 C7.66 1.66 8.32 2.32 9 3 C6.75 4.1875 6.75 4.1875 4 5 C1.6875 3.75 1.6875 3.75 0 2 C0 1.34 0 0.68 0 0 Z " fill="#4E6B9E" transform="translate(28,104)"/>
<path d="M0 0 C0.33 0 0.66 0 1 0 C0.67 2.31 0.34 4.62 0 7 C-1.32 7.33 -2.64 7.66 -4 8 C-4 7.01 -4 6.02 -4 5 C-3.34 5 -2.68 5 -2 5 C-2 4.34 -2 3.68 -2 3 C-1.34 3 -0.68 3 0 3 C0 2.01 0 1.02 0 0 Z " fill="#215BAA" transform="translate(107,80)"/>
<path d="M0 0 C2.31 0.33 4.62 0.66 7 1 C6.01 1.33 5.02 1.66 4 2 C4 2.66 4 3.32 4 4 C2.68 4.33 1.36 4.66 0 5 C0 3.35 0 1.7 0 0 Z " fill="#1324D6" transform="translate(25,65)"/>
<path d="M0 0 C0.33 0.99 0.66 1.98 1 3 C-0.75 5 -0.75 5 -3 7 C-4.32 7 -5.64 7 -7 7 C-7.33 6.01 -7.66 5.02 -8 4 C-7.236875 3.855625 -6.47375 3.71125 -5.6875 3.5625 C-2.91827092 3.0367406 -2.91827092 3.0367406 0 2 C0 1.34 0 0.68 0 0 Z " fill="#948778" transform="translate(107,31)"/>
<path d="M0 0 C-0.33 1.32 -0.66 2.64 -1 4 C-2.98 4.33 -4.96 4.66 -7 5 C-6.1875 3.0625 -6.1875 3.0625 -5 1 C-2 0 -2 0 0 0 Z " fill="#154C9B" transform="translate(90,102)"/>
<path d="M0 0 C1.32 0 2.64 0 4 0 C3.67 0.99 3.34 1.98 3 3 C0.4375 4.1875 0.4375 4.1875 -2 5 C-1.125 1.125 -1.125 1.125 0 0 Z " fill="#26A0E2" transform="translate(34,73)"/>
<path d="M0 0 C0 3 0 3 -1.3125 4.38671875 C-2.875 5.59114583 -4.4375 6.79557292 -6 8 C-6.33 6.68 -6.66 5.36 -7 4 C-5.824375 3.566875 -5.824375 3.566875 -4.625 3.125 C-1.90328368 2.15087746 -1.90328368 2.15087746 0 0 Z " fill="#6D5F49" transform="translate(101,41)"/>
<path d="M0 0 C0.99 0.33 1.98 0.66 3 1 C1.625 2.5 1.625 2.5 0 4 C-0.66 4 -1.32 4 -2 4 C-2.33 4.99 -2.66 5.98 -3 7 C-3.99 6.67 -4.98 6.34 -6 6 C-4 4 -2 2 0 0 Z " fill="#E0E2E3" transform="translate(84,34)"/>
<path d="M0 0 C1.5 1.1875 1.5 1.1875 3 3 C3.1875 5.6875 3.1875 5.6875 3 8 C0.9375 6.25 0.9375 6.25 -1 4 C-0.75 1.75 -0.75 1.75 0 0 Z " fill="#B24631" transform="translate(109,24)"/>
<path d="M0 0 C0.33 0.66 0.66 1.32 1 2 C-1.40983607 6.70491803 -1.40983607 6.70491803 -4 8 C-4 6.35 -4 4.7 -4 3 C-3.01 3 -2.02 3 -1 3 C-0.67 2.01 -0.34 1.02 0 0 Z " fill="#636565" transform="translate(94,51)"/>
<path d="M0 0 C0.33 0.66 0.66 1.32 1 2 C-1.31 3.65 -3.62 5.3 -6 7 C-6 4 -6 4 -4.6875 2.375 C-3 1 -3 1 0 0 Z " fill="#ACACAC" transform="translate(95,31)"/>
<path d="M0 0 C0.33 0.99 0.66 1.98 1 3 C1.66 3.33 2.32 3.66 3 4 C2.34 4 1.68 4 1 4 C1 4.99 1 5.98 1 7 C0.34 7 -0.32 7 -1 7 C-1 5.68 -1 4.36 -1 3 C-1.66 2.67 -2.32 2.34 -3 2 C-2.01 1.34 -1.02 0.68 0 0 Z " fill="#3C7ECA" transform="translate(90,59)"/>
</svg>
